<svg width="1583" height="262" viewBox="0 0 1583 262" fill="none" xmlns="http://www.w3.org/2000/svg">
<path d="M1477.01 261.999C1451.04 261.999 1427.5 256.45 1406.39 245.352C1385.52 234.014 1369.02 218.453 1356.89 198.67C1345 178.646 1339.05 156.09 1339.05 130.999C1339.05 105.909 1345 83.4729 1356.89 63.6903C1369.02 43.6665 1385.52 28.1058 1406.39 17.0082C1427.5 5.66941 1451.16 0 1477.37 0C1499.45 0 1519.35 3.86002 1537.07 11.5801C1555.02 19.3001 1570.07 30.3977 1582.2 44.8727L1544.35 79.6129C1527.12 59.8303 1505.76 49.939 1480.28 49.939C1464.51 49.939 1450.43 53.4371 1438.06 60.4334C1425.68 67.1885 1415.98 76.7179 1408.94 89.0217C1402.14 101.325 1398.75 115.318 1398.75 130.999C1398.75 146.681 1402.14 160.673 1408.94 172.977C1415.98 185.281 1425.68 194.931 1438.06 201.927C1450.43 208.682 1464.51 212.06 1480.28 212.06C1505.76 212.06 1527.12 202.048 1544.35 182.024L1582.2 216.764C1570.07 231.481 1555.02 242.699 1537.07 250.419C1519.11 258.139 1499.09 261.999 1477.01 261.999Z" fill="#2F2F2F"/>
<path d="M1057.57 4.34253H1116.18V169.358L1237.75 4.34253H1293.08V257.656H1234.84V93.0023L1113.27 257.656H1057.57V4.34253Z" fill="#2F2F2F"/>
<path d="M962.891 125.571C978.421 130.155 990.312 137.634 998.563 148.008C1006.81 158.381 1010.94 171.168 1010.94 186.367C1010.94 208.803 1002.32 226.294 985.095 238.839C968.108 251.384 943.72 257.656 911.931 257.656H786.351V4.34253H905.015C934.62 4.34253 957.673 10.0119 974.175 21.3507C990.676 32.6895 998.927 48.8534 998.927 69.8422C998.927 82.3873 995.772 93.4848 989.463 103.135C983.153 112.544 974.296 120.022 962.891 125.571ZM844.955 109.287H899.919C912.78 109.287 922.487 106.754 929.039 101.687C935.591 96.3799 938.867 88.6598 938.867 78.5273C938.867 68.636 935.469 61.0366 928.675 55.729C922.123 50.4215 912.537 47.7677 899.919 47.7677H844.955V109.287ZM909.747 214.231C937.411 214.231 951.243 203.375 951.243 181.662C951.243 160.673 937.411 150.179 909.747 150.179H844.955V214.231H909.747Z" fill="#2F2F2F"/>
<path d="M636.795 4.34253C659.363 4.34253 678.898 8.08192 695.399 15.5607C712.143 23.0395 725.004 33.6546 733.983 47.4059C742.962 61.1572 747.451 77.4416 747.451 96.2592C747.451 114.836 742.962 131.12 733.983 145.113C725.004 158.864 712.143 169.479 695.399 176.958C678.898 184.195 659.363 187.814 636.795 187.814H585.471V257.656H526.503V4.34253H636.795ZM633.519 140.046C651.234 140.046 664.702 136.307 673.923 128.828C683.145 121.108 687.755 110.252 687.755 96.2592C687.755 82.0254 683.145 71.1691 673.923 63.6903C664.702 55.9703 651.234 52.1103 633.519 52.1103H585.471V140.046H633.519Z" fill="#2F2F2F"/>
<path d="M478.873 210.612V257.656H281.585V4.34253H474.141V51.3865H340.189V106.392H458.489V151.988H340.189V210.612H478.873Z" fill="#2F2F2F"/>
<path d="M137.956 261.999C111.991 261.999 88.452 256.45 67.34 245.352C46.4707 234.014 29.9693 218.453 17.836 198.67C5.94533 178.646 0 156.09 0 130.999C0 105.909 5.94533 83.4729 17.836 63.6903C29.9693 43.6665 46.4707 28.1058 67.34 17.0082C88.452 5.66941 112.112 0 138.32 0C160.403 0 180.301 3.86002 198.016 11.5801C215.973 19.3001 231.019 30.3977 243.152 44.8727L205.296 79.6129C188.067 59.8303 166.712 49.939 141.232 49.939C125.459 49.939 111.384 53.4371 99.008 60.4334C86.632 67.1885 76.9253 76.7179 69.888 89.0217C63.0933 101.325 59.696 115.318 59.696 130.999C59.696 146.681 63.0933 160.673 69.888 172.977C76.9253 185.281 86.632 194.931 99.008 201.927C111.384 208.682 125.459 212.06 141.232 212.06C166.712 212.06 188.067 202.048 205.296 182.024L243.152 216.764C231.019 231.481 215.973 242.699 198.016 250.419C180.059 258.139 160.039 261.999 137.956 261.999Z" fill="#2F2F2F"/>
</svg>
