<svg width="1119" height="900" viewBox="0 0 1119 900" fill="none" xmlns="http://www.w3.org/2000/svg">
<g opacity="0.15">
<path d="M428.483 751.284C398.32 722.302 381.249 683.339 380.414 641.572C379.579 599.804 395.081 560.188 424.064 530.023C453.045 499.861 492.009 482.79 533.777 481.955C575.546 481.121 615.16 496.621 645.323 525.603C675.488 554.586 692.559 593.55 693.393 635.319C694.227 677.086 678.725 716.7 649.744 746.863C620.76 777.029 581.796 794.1 540.029 794.936C498.264 795.77 458.649 780.268 428.483 751.284ZM632.039 539.43C577.443 486.973 490.348 488.712 437.89 543.309C385.432 597.905 387.173 685 441.769 737.457C496.365 789.915 583.459 788.175 635.917 733.578C688.375 678.982 686.635 591.888 632.039 539.43Z" fill="url(#paint0_linear_28_545)"/>
<path d="M437.806 741.581C410.237 715.092 394.633 679.479 393.87 641.304C393.107 603.126 407.276 566.918 433.767 539.347C460.256 511.778 495.869 496.175 534.046 495.412C572.224 494.649 608.432 508.817 636.001 535.306C663.572 561.797 679.176 597.411 679.937 635.588C680.7 673.764 666.53 709.971 640.041 737.54C613.549 765.112 577.936 780.716 539.761 781.479C501.587 782.242 465.378 768.073 437.806 741.581ZM632.039 539.43C577.443 486.973 490.348 488.712 437.891 543.309C385.433 597.905 387.173 685 441.769 737.457C496.365 789.915 583.46 788.175 635.917 733.578C688.375 678.982 686.635 591.888 632.039 539.43Z" fill="url(#paint1_linear_28_545)"/>
<path d="M419.964 760.151L419.844 760.036L433.129 746.209L433.249 746.324C439.774 752.594 446.869 758.287 454.336 763.245L443.73 779.219C435.31 773.629 427.314 767.214 419.964 760.151ZM391.887 724.902C386.647 716.132 382.186 706.825 378.628 697.241L396.604 690.568C399.756 699.058 403.707 707.301 408.347 715.068L391.887 724.902ZM484.149 798.836L490.136 780.62C498.728 783.443 507.641 785.495 516.625 786.719L514.038 805.719C503.902 804.339 493.846 802.023 484.149 798.836ZM368.749 653.445C367.844 643.269 367.863 632.954 368.805 622.785L387.899 624.555C387.063 633.574 387.046 642.721 387.849 651.746L368.749 653.445ZM558.934 805.827L556.439 786.816C565.428 785.636 574.35 783.63 582.957 780.851L588.848 799.098C579.138 802.233 569.073 804.498 558.934 805.827ZM378.863 579.013C382.461 569.444 386.964 560.154 392.246 551.401L408.663 561.308C403.985 569.06 399.997 577.287 396.811 585.762L378.863 579.013ZM629.361 779.702L618.839 763.672C626.382 758.721 633.54 753.03 640.115 746.753L653.355 760.623C645.943 767.698 637.87 774.117 629.361 779.702ZM433.577 530.242L420.322 516.387C427.725 509.306 435.79 502.878 444.297 497.283L454.834 513.302C447.295 518.261 440.143 523.961 433.577 530.242ZM665.061 715.715C669.748 707.967 673.744 699.744 676.94 691.272L694.88 698.041C691.272 707.606 686.759 716.891 681.469 725.639L665.061 715.715ZM490.701 496.088L484.791 477.847C494.499 474.701 504.561 472.427 514.698 471.087L517.212 490.097C508.224 491.285 499.305 493.301 490.701 496.088ZM685.894 652.489C686.74 643.472 686.766 634.324 685.973 625.298L705.074 623.62C705.969 633.796 705.938 644.112 704.985 654.279L685.894 652.489ZM557.026 490.151L559.593 471.149C569.73 472.518 579.788 474.823 589.489 477.999L583.523 496.222C574.926 493.408 566.012 491.364 557.026 490.151ZM677.259 586.467C674.116 577.974 670.175 569.728 665.542 561.957L682.012 552.138C687.244 560.913 691.695 570.225 695.242 579.814L677.259 586.467ZM619.341 513.558L629.93 497.572C638.406 503.187 646.452 509.635 653.844 516.737L654.084 516.969L640.799 530.795L640.53 530.536C633.996 524.258 626.858 518.537 619.341 513.558Z" fill="url(#paint2_linear_28_545)"/>
<path d="M508.753 667.742C500.258 659.578 495.727 648.146 496.325 636.375C496.92 624.616 502.595 613.698 511.894 606.42C518.036 601.609 525.402 598.689 533.193 597.978C540.988 597.265 548.762 598.795 555.671 602.403C562.486 605.951 568.349 611.584 572.17 618.26C580.08 632.031 579.191 649.264 569.898 662.156C562.999 671.737 552.316 677.843 540.587 678.909C528.854 679.977 517.251 675.906 508.753 667.742ZM555.745 618.83C553.872 617.031 551.749 615.494 549.464 614.305C544.838 611.889 539.637 610.867 534.414 611.345C529.199 611.82 524.274 613.772 520.168 616.988C513.932 621.869 510.129 629.182 509.73 637.054C509.33 644.939 512.363 652.597 518.053 658.063C523.744 663.531 531.513 666.257 539.372 665.542C547.225 664.829 554.382 660.735 559.008 654.31C565.226 645.683 565.821 634.155 560.526 624.937C559.243 622.696 557.619 620.631 555.745 618.83Z" fill="url(#paint3_linear_28_545)"/>
<path d="M495.388 689.955L487.093 681.984L430.979 740.386L439.275 748.357L495.388 689.955Z" fill="url(#paint4_linear_28_545)"/>
<path d="M585.617 777.161L555.816 701.869L566.514 697.635L596.315 772.928L585.617 777.161Z" fill="url(#paint5_linear_28_545)"/>
<path d="M602.44 647.587L603.033 636.098L683.91 640.275L683.315 651.765L602.44 647.587Z" fill="url(#paint6_linear_28_545)"/>
<path d="M525.149 573.324L517.751 492.686L529.209 491.634L536.606 572.272L525.149 573.324Z" fill="url(#paint7_linear_28_545)"/>
<path d="M396.351 595.309L400.154 584.451L476.578 611.222L472.774 622.08L396.351 595.309Z" fill="url(#paint8_linear_28_545)"/>
<path d="M484.597 692.883C468.81 677.714 460.392 656.468 461.503 634.593C462.611 612.743 473.157 592.456 490.436 578.935C501.846 569.998 515.531 564.573 530.005 563.25C544.495 561.924 558.939 564.766 571.773 571.469C584.441 578.065 595.336 588.533 602.438 600.939C617.136 626.53 615.482 658.549 598.217 682.5C585.399 700.304 565.548 711.653 543.757 713.634C521.95 715.618 500.387 708.054 484.597 692.883ZM575.91 597.842C572.032 594.116 567.637 590.934 562.907 588.471C553.335 583.472 542.565 581.355 531.751 582.345C520.958 583.331 510.759 587.372 502.256 594.033C489.353 604.13 481.479 619.267 480.652 635.564C479.824 651.887 486.104 667.739 497.882 679.055C509.663 690.374 525.75 696.018 542.019 694.538C558.274 693.06 573.087 684.588 582.659 671.292C595.532 653.433 596.766 629.563 585.804 610.477C583.151 605.842 579.79 601.57 575.91 597.842Z" fill="url(#paint9_linear_28_545)"/>
<path d="M327.595 239.669C305.77 218.699 293.418 190.507 292.814 160.286C292.21 130.064 303.426 101.4 324.397 79.5743C345.366 57.7499 373.559 45.3981 403.781 44.7939C434.003 44.1906 462.666 55.4064 484.491 76.3759C506.316 97.3466 518.669 125.54 519.272 155.762C519.875 185.982 508.659 214.645 487.689 236.47C466.718 258.296 438.525 270.649 408.305 271.253C378.084 271.857 349.42 260.639 327.595 239.669ZM474.878 86.3803C435.375 48.4242 372.357 49.6828 334.401 89.1863C296.445 128.69 297.704 191.708 337.208 229.664C376.711 267.619 439.729 266.36 477.685 226.857C515.64 187.353 514.381 124.336 474.878 86.3803Z" fill="url(#paint10_linear_28_545)"/>
<path d="M334.34 232.648C314.392 213.481 303.102 187.713 302.549 160.091C301.997 132.468 312.249 106.269 331.417 86.3201C350.583 66.3727 376.352 55.0824 403.975 54.5306C431.598 53.9783 457.797 64.2299 477.745 83.3963C497.694 102.564 508.984 128.333 509.534 155.956C510.086 183.578 499.834 209.776 480.667 229.724C461.5 249.673 435.731 260.964 408.109 261.516C380.488 262.068 354.289 251.816 334.34 232.648ZM474.878 86.3801C435.374 48.424 372.357 49.6826 334.4 89.1861C296.444 128.69 297.704 191.707 337.207 229.664C376.711 267.619 439.729 266.36 477.684 226.857C515.64 187.353 514.381 124.335 474.878 86.3801Z" fill="url(#paint11_linear_28_545)"/>
<path d="M321.43 246.084L321.343 246.001L330.956 235.997L331.043 236.08C335.764 240.616 340.898 244.735 346.301 248.322L338.627 259.881C332.534 255.836 326.748 251.194 321.43 246.084ZM301.115 220.579C297.323 214.234 294.096 207.5 291.521 200.564L304.528 195.736C306.808 201.88 309.667 207.844 313.025 213.464L301.115 220.579ZM367.871 274.075L372.203 260.894C378.419 262.937 384.869 264.422 391.369 265.307L389.497 279.054C382.164 278.056 374.887 276.38 367.871 274.075ZM284.372 168.876C283.718 161.513 283.732 154.049 284.414 146.692L298.229 147.972C297.624 154.498 297.612 161.117 298.193 167.647L284.372 168.876ZM421.983 279.133L420.177 265.378C426.681 264.524 433.137 263.072 439.364 261.061L443.627 274.264C436.601 276.533 429.319 278.171 421.983 279.133ZM291.691 115.021C294.295 108.097 297.552 101.375 301.374 95.0412L313.253 102.209C309.868 107.818 306.983 113.771 304.677 119.904L291.691 115.021ZM472.94 260.23L465.328 248.631C470.785 245.049 475.964 240.93 480.722 236.389L490.302 246.425C484.938 251.545 479.097 256.189 472.94 260.23ZM331.28 79.7319L321.689 69.7066C327.045 64.5823 332.882 59.9315 339.036 55.8839L346.661 67.4744C341.206 71.0628 336.03 75.187 331.28 79.7319ZM498.772 213.932C502.163 208.326 505.054 202.376 507.366 196.246L520.348 201.143C517.736 208.064 514.472 214.782 510.643 221.112L498.772 213.932ZM372.611 55.019L368.335 41.8206C375.36 39.5447 382.64 37.8991 389.975 36.9292L391.793 50.6839C385.291 51.5437 378.837 53.0024 372.611 55.019ZM513.845 168.184C514.456 161.66 514.476 155.04 513.903 148.51L527.723 147.296C528.37 154.659 528.348 162.123 527.658 169.48L513.845 168.184ZM420.602 50.7236L422.459 36.9745C429.794 37.9649 437.071 39.6324 444.091 41.9307L439.774 55.1164C433.553 53.0796 427.103 51.6016 420.602 50.7236ZM507.597 120.414C505.323 114.269 502.471 108.302 499.119 102.679L511.036 95.5748C514.821 101.924 518.042 108.661 520.609 115.6L507.597 120.414ZM465.69 67.6602L473.352 56.0932C479.485 60.1558 485.306 64.821 490.655 69.9602L490.829 70.128L481.216 80.1324L481.021 79.9448C476.294 75.4018 471.129 71.2619 465.69 67.6602Z" fill="url(#paint12_linear_28_545)"/>
<path d="M385.674 179.221C379.526 173.314 376.248 165.042 376.68 156.525C377.111 148.016 381.217 140.116 387.945 134.851C392.39 131.37 397.719 129.257 403.357 128.743C408.997 128.226 414.622 129.333 419.62 131.945C424.552 134.511 428.794 138.588 431.558 143.418C437.282 153.382 436.639 165.851 429.915 175.18C424.924 182.111 417.193 186.53 408.708 187.301C400.217 188.073 391.821 185.128 385.674 179.221ZM419.674 143.83C418.319 142.528 416.783 141.416 415.13 140.556C411.783 138.808 408.019 138.068 404.24 138.415C400.467 138.758 396.903 140.171 393.932 142.498C389.421 146.03 386.669 151.321 386.379 157.017C386.09 162.722 388.285 168.263 392.402 172.218C396.519 176.174 402.142 178.147 407.827 177.63C413.509 177.113 418.687 174.152 422.034 169.503C426.533 163.261 426.964 154.919 423.133 148.25C422.206 146.627 421.03 145.134 419.674 143.83Z" fill="url(#paint13_linear_28_545)"/>
<path d="M376.003 195.293L370.001 189.526L329.399 231.782L335.402 237.55L376.003 195.293Z" fill="url(#paint14_linear_28_545)"/>
<path d="M441.288 258.391L419.726 203.913L427.467 200.85L449.029 255.328L441.288 258.391Z" fill="url(#paint15_linear_28_545)"/>
<path d="M453.461 164.637L453.891 156.324L512.409 159.347L511.98 167.66L453.461 164.637Z" fill="url(#paint16_linear_28_545)"/>
<path d="M397.536 110.903L392.184 52.5576L400.473 51.797L405.826 110.143L397.536 110.903Z" fill="url(#paint17_linear_28_545)"/>
<path d="M304.344 126.811L307.096 118.955L362.393 138.325L359.641 146.181L304.344 126.811Z" fill="url(#paint18_linear_28_545)"/>
<path d="M368.197 197.411C356.773 186.436 350.682 171.063 351.486 155.236C352.288 139.426 359.918 124.748 372.42 114.964C380.677 108.497 390.578 104.572 401.051 103.615C411.535 102.655 421.986 104.712 431.273 109.562C440.439 114.335 448.322 121.909 453.461 130.884C464.096 149.401 462.898 172.569 450.407 189.899C441.132 202.781 426.769 210.993 411.002 212.426C395.223 213.861 379.621 208.388 368.197 197.411ZM434.266 128.644C431.46 125.948 428.279 123.645 424.857 121.864C417.931 118.246 410.138 116.714 402.314 117.43C394.505 118.145 387.126 121.069 380.972 125.887C371.636 133.194 365.939 144.146 365.341 155.938C364.742 167.748 369.286 179.218 377.809 187.407C386.332 195.596 397.973 199.679 409.744 198.609C421.505 197.54 432.223 191.409 439.149 181.789C448.463 168.867 449.356 151.596 441.425 137.786C439.504 134.433 437.073 131.341 434.266 128.644Z" fill="url(#paint19_linear_28_545)"/>
<path d="M826.887 382.709C811.9 368.309 803.418 348.95 803.004 328.197C802.588 307.444 810.291 287.761 824.691 272.773C839.091 257.787 858.45 249.305 879.204 248.89C899.957 248.476 919.64 256.177 934.626 270.577C949.614 284.978 958.096 304.337 958.51 325.091C958.925 345.843 951.223 365.526 936.823 380.512C922.422 395.5 903.063 403.983 882.31 404.397C861.558 404.812 841.875 397.109 826.887 382.709ZM928.025 277.447C900.899 251.383 857.625 252.247 831.561 279.374C805.497 306.501 806.361 349.775 833.488 375.839C860.614 401.903 903.889 401.038 929.952 373.912C956.017 346.785 955.152 303.511 928.025 277.447Z" fill="url(#paint20_linear_28_545)"/>
<path d="M831.519 377.888C817.822 364.727 810.069 347.032 809.689 328.064C809.31 309.095 816.35 291.105 829.512 277.406C842.674 263.708 860.368 255.955 879.337 255.576C898.306 255.197 916.296 262.237 929.994 275.398C943.693 288.561 951.446 306.256 951.824 325.224C952.203 344.192 945.163 362.182 932.001 375.881C918.839 389.58 901.144 397.333 882.176 397.711C863.209 398.09 845.219 391.051 831.519 377.888ZM928.025 277.447C900.899 251.383 857.625 252.248 831.561 279.375C805.497 306.501 806.361 349.775 833.488 375.839C860.615 401.903 903.889 401.039 929.953 373.912C956.017 346.785 955.152 303.511 928.025 277.447Z" fill="url(#paint21_linear_28_545)"/>
<path d="M822.654 387.114L822.594 387.057L829.195 380.187L829.255 380.244C832.497 383.359 836.022 386.187 839.732 388.651L834.463 396.589C830.279 393.811 826.306 390.624 822.654 387.114ZM808.703 369.601C806.1 365.243 803.884 360.619 802.116 355.857L811.047 352.541C812.613 356.759 814.576 360.854 816.882 364.714L808.703 369.601ZM854.545 406.335L857.519 397.285C861.789 398.688 866.217 399.707 870.681 400.315L869.396 409.756C864.359 409.07 859.363 407.918 854.545 406.335ZM797.207 334.096C796.758 329.04 796.767 323.915 797.235 318.863L806.722 319.743C806.307 324.223 806.298 328.769 806.697 333.253L797.207 334.096ZM891.702 409.809L890.462 400.363C894.929 399.777 899.362 398.78 903.638 397.399L906.565 406.465C901.741 408.023 896.74 409.148 891.702 409.809ZM802.232 297.114C804.02 292.36 806.257 287.744 808.881 283.395L817.039 288.317C814.714 292.169 812.733 296.257 811.149 300.467L802.232 297.114ZM926.695 396.828L921.467 388.864C925.214 386.404 928.771 383.576 932.038 380.458L938.617 387.349C934.934 390.864 930.923 394.054 926.695 396.828ZM829.418 272.882L822.832 265.997C826.51 262.479 830.518 259.285 834.744 256.505L839.979 264.464C836.233 266.929 832.68 269.761 829.418 272.882ZM944.433 365.036C946.762 361.187 948.747 357.101 950.335 352.891L959.249 356.254C957.456 361.007 955.214 365.62 952.585 369.967L944.433 365.036ZM857.8 255.912L854.863 246.849C859.686 245.286 864.686 244.156 869.723 243.49L870.972 252.934C866.507 253.526 862.075 254.527 857.8 255.912ZM954.784 333.622C955.204 329.141 955.217 324.596 954.823 320.111L964.314 319.278C964.759 324.334 964.743 329.459 964.269 334.51L954.784 333.622ZM890.755 252.962L892.03 243.52C897.066 244.201 902.064 245.346 906.884 246.924L903.919 255.978C899.648 254.58 895.219 253.565 890.755 252.962ZM950.493 300.818C948.932 296.598 946.973 292.501 944.672 288.64L952.855 283.761C955.454 288.121 957.666 292.748 959.428 297.513L950.493 300.818ZM921.717 264.592L926.978 256.649C931.189 259.439 935.187 262.642 938.859 266.171L938.979 266.286L932.378 273.156L932.244 273.027C928.998 269.909 925.451 267.066 921.717 264.592Z" fill="url(#paint22_linear_28_545)"/>
<path d="M866.77 341.2C862.548 337.144 860.297 331.464 860.594 325.615C860.89 319.772 863.71 314.348 868.329 310.731C871.381 308.341 875.041 306.89 878.912 306.537C882.786 306.182 886.648 306.942 890.081 308.736C893.467 310.498 896.38 313.297 898.278 316.614C902.208 323.456 901.767 332.02 897.15 338.425C893.722 343.184 888.414 346.219 882.587 346.749C876.756 347.279 870.991 345.257 866.77 341.2ZM890.118 316.897C889.187 316.004 888.132 315.24 886.997 314.649C884.699 313.449 882.115 312.94 879.519 313.179C876.928 313.415 874.481 314.384 872.441 315.982C869.343 318.407 867.453 322.041 867.254 325.952C867.056 329.87 868.563 333.675 871.39 336.391C874.218 339.108 878.078 340.462 881.983 340.107C885.884 339.752 889.44 337.718 891.738 334.526C894.828 330.24 895.124 324.512 892.492 319.932C891.856 318.818 891.049 317.792 890.118 316.897Z" fill="url(#paint23_linear_28_545)"/>
<path d="M860.129 352.237L856.007 348.276L828.126 377.294L832.248 381.254L860.129 352.237Z" fill="url(#paint24_linear_28_545)"/>
<path d="M904.96 395.566L890.154 358.156L895.468 356.053L910.275 393.462L904.96 395.566Z" fill="url(#paint25_linear_28_545)"/>
<path d="M913.319 331.186L913.614 325.477L953.798 327.553L953.503 333.261L913.319 331.186Z" fill="url(#paint26_linear_28_545)"/>
<path d="M874.916 294.287L871.241 254.222L876.933 253.699L880.609 293.765L874.916 294.287Z" fill="url(#paint27_linear_28_545)"/>
<path d="M810.921 305.211L812.811 299.816L850.782 313.118L848.893 318.512L810.921 305.211Z" fill="url(#paint28_linear_28_545)"/>
<path d="M854.768 353.691C846.924 346.155 842.741 335.598 843.293 324.729C843.844 313.873 849.084 303.793 857.668 297.075C863.338 292.635 870.137 289.94 877.328 289.282C884.528 288.624 891.704 290.036 898.082 293.366C904.376 296.643 909.789 301.844 913.318 308.008C920.621 320.723 919.799 336.632 911.221 348.533C904.852 357.379 894.989 363.018 884.161 364.002C873.326 364.987 862.613 361.229 854.768 353.691ZM900.137 306.47C898.21 304.618 896.026 303.037 893.676 301.814C888.92 299.33 883.569 298.278 878.196 298.77C872.833 299.26 867.766 301.267 863.541 304.577C857.13 309.594 853.218 317.115 852.807 325.213C852.395 333.322 855.516 341.198 861.368 346.822C867.222 352.446 875.215 355.249 883.298 354.515C891.374 353.78 898.734 349.571 903.49 342.964C909.887 334.091 910.499 322.231 905.053 312.748C903.735 310.444 902.064 308.322 900.137 306.47Z" fill="url(#paint29_linear_28_545)"/>
<path d="M673.417 611.861C657.217 596.296 648.049 575.37 647.6 552.938C647.152 530.505 655.478 509.23 671.044 493.029C686.609 476.83 707.534 467.661 729.968 467.213C752.401 466.765 773.677 475.09 789.876 490.654C806.077 506.221 815.246 527.147 815.693 549.58C816.141 572.012 807.815 593.288 792.25 609.487C776.684 625.688 755.757 634.858 733.326 635.306C710.894 635.753 689.618 627.428 673.417 611.861ZM782.741 498.08C753.419 469.907 706.643 470.842 678.47 500.164C650.296 529.486 651.231 576.262 680.553 604.435C709.875 632.608 756.65 631.674 784.824 602.352C812.997 573.03 812.063 526.254 782.741 498.08Z" fill="url(#paint30_linear_28_545)"/>
<path d="M678.424 606.65C663.618 592.423 655.238 573.297 654.828 552.794C654.418 532.29 662.028 512.844 676.255 498.036C690.481 483.23 709.609 474.849 730.112 474.44C750.616 474.03 770.063 481.64 784.869 495.866C799.677 510.094 808.057 529.221 808.466 549.725C808.876 570.228 801.266 589.674 787.039 604.481C772.812 619.289 753.686 627.669 733.182 628.079C712.679 628.488 693.232 620.878 678.424 606.65ZM782.741 498.08C753.419 469.907 706.643 470.842 678.47 500.164C650.296 529.486 651.231 576.262 680.553 604.435C709.874 632.609 756.65 631.674 784.824 602.352C812.997 573.03 812.063 526.254 782.741 498.08Z" fill="url(#paint31_linear_28_545)"/>
<path d="M668.842 616.624L668.777 616.562L675.912 609.136L675.977 609.198C679.481 612.565 683.292 615.622 687.302 618.285L681.606 626.864C677.084 623.862 672.789 620.416 668.842 616.624ZM653.762 597.692C650.948 592.982 648.552 587.984 646.641 582.836L656.295 579.252C657.988 583.812 660.109 588.239 662.602 592.41L653.762 597.692ZM703.313 637.4L706.529 627.617C711.143 629.134 715.93 630.236 720.755 630.893L719.365 641.097C713.922 640.355 708.521 639.112 703.313 637.4ZM641.335 559.314C640.849 553.849 640.859 548.309 641.366 542.847L651.62 543.798C651.172 548.642 651.162 553.555 651.593 558.402L641.335 559.314ZM743.479 641.155L742.138 630.945C746.967 630.311 751.758 629.233 756.38 627.741L759.544 637.54C754.329 639.225 748.924 640.441 743.479 641.155ZM646.767 519.339C648.699 514.2 651.118 509.21 653.955 504.51L662.772 509.83C660.26 513.994 658.118 518.413 656.407 522.964L646.767 519.339ZM781.303 627.124L775.652 618.515C779.703 615.856 783.547 612.799 787.078 609.428L794.189 616.877C790.208 620.677 785.873 624.124 781.303 627.124ZM676.153 493.146L669.034 485.705C673.009 481.901 677.341 478.449 681.91 475.444L687.569 484.048C683.52 486.712 679.679 489.772 676.153 493.146ZM800.476 592.758C802.993 588.597 805.14 584.18 806.856 579.631L816.491 583.266C814.554 588.402 812.13 593.389 809.288 598.088L800.476 592.758ZM706.832 474.802L703.658 465.006C708.872 463.317 714.276 462.095 719.72 461.375L721.07 471.585C716.243 472.223 711.453 473.305 706.832 474.802ZM811.665 558.801C812.119 553.958 812.134 549.045 811.708 544.198L821.967 543.297C822.446 548.762 822.43 554.303 821.918 559.763L811.665 558.801ZM742.454 471.614L743.832 461.409C749.276 462.144 754.678 463.381 759.888 465.087L756.684 474.874C752.067 473.363 747.279 472.266 742.454 471.614ZM807.027 523.343C805.339 518.781 803.222 514.352 800.734 510.179L809.58 504.905C812.389 509.618 814.78 514.619 816.685 519.769L807.027 523.343ZM775.921 484.185L781.608 475.599C786.161 478.614 790.482 482.077 794.452 485.891L794.581 486.016L787.446 493.442L787.302 493.303C783.792 489.932 779.958 486.859 775.921 484.185Z" fill="url(#paint32_linear_28_545)"/>
<path d="M716.528 566.994C711.965 562.61 709.533 556.469 709.853 550.147C710.172 543.831 713.22 537.967 718.214 534.059C721.513 531.474 725.469 529.907 729.653 529.525C733.84 529.142 738.015 529.963 741.725 531.902C745.386 533.807 748.534 536.832 750.586 540.418C754.834 547.814 754.357 557.07 749.366 563.994C745.661 569.139 739.923 572.419 733.624 572.991C727.323 573.564 721.091 571.378 716.528 566.994ZM741.766 540.724C740.76 539.757 739.619 538.932 738.393 538.294C735.908 536.996 733.115 536.447 730.31 536.704C727.509 536.959 724.864 538.007 722.659 539.735C719.31 542.356 717.267 546.284 717.053 550.512C716.838 554.747 718.467 558.859 721.523 561.795C724.579 564.731 728.753 566.195 732.973 565.812C737.19 565.428 741.034 563.229 743.518 559.779C746.858 555.146 747.178 548.954 744.333 544.004C743.645 542.8 742.772 541.691 741.766 540.724Z" fill="url(#paint33_linear_28_545)"/>
<path d="M709.349 578.923L704.894 574.642L674.757 606.008L679.212 610.289L709.349 578.923Z" fill="url(#paint34_linear_28_545)"/>
<path d="M757.809 625.759L741.804 585.322L747.549 583.048L763.554 623.485L757.809 625.759Z" fill="url(#paint35_linear_28_545)"/>
<path d="M766.844 556.169L767.163 549.998L810.599 552.242L810.28 558.413L766.844 556.169Z" fill="url(#paint36_linear_28_545)"/>
<path d="M725.333 516.284L721.36 472.976L727.513 472.411L731.486 515.719L725.333 516.284Z" fill="url(#paint37_linear_28_545)"/>
<path d="M656.16 528.091L658.202 522.26L699.247 536.638L697.204 542.469L656.16 528.091Z" fill="url(#paint38_linear_28_545)"/>
<path d="M703.555 580.496C695.076 572.349 690.555 560.938 691.151 549.19C691.747 537.455 697.41 526.559 706.69 519.297C712.819 514.497 720.168 511.584 727.941 510.874C735.724 510.161 743.481 511.688 750.374 515.288C757.178 518.831 763.029 524.453 766.843 531.115C774.737 544.86 773.848 562.056 764.576 574.92C757.691 584.482 747.031 590.577 735.326 591.641C723.616 592.706 712.035 588.644 703.555 580.496ZM752.596 529.453C750.513 527.452 748.152 525.742 745.612 524.419C740.472 521.734 734.687 520.597 728.88 521.129C723.083 521.659 717.606 523.829 713.039 527.406C706.109 532.829 701.881 540.959 701.436 549.712C700.991 558.478 704.364 566.992 710.69 573.07C717.017 579.149 725.657 582.181 734.395 581.385C743.125 580.592 751.08 576.041 756.221 568.901C763.135 559.309 763.798 546.49 757.911 536.238C756.485 533.748 754.679 531.454 752.596 529.453Z" fill="url(#paint39_linear_28_545)"/>
<path d="M606.6 432.549C633.803 458.686 677.044 457.823 703.182 430.62C729.319 403.417 728.455 360.176 701.252 334.038C674.049 307.901 630.808 308.765 604.671 335.968C578.533 363.171 579.397 406.412 606.6 432.549Z" fill="url(#paint40_radial_28_545)"/>
<path d="M651.206 289.249C599.231 290.287 557.92 333.283 558.958 385.257C559.997 437.275 602.994 478.587 654.967 477.549C706.986 476.51 748.297 433.514 747.258 381.495C746.22 329.521 703.224 288.21 651.206 289.249ZM653.988 428.495C629.085 428.992 608.511 409.18 608.013 384.277C607.516 359.374 627.283 338.801 652.186 338.303C677.133 337.805 697.707 357.573 698.204 382.476C698.702 407.379 678.935 427.996 653.988 428.495Z" fill="url(#paint41_linear_28_545)"/>
<path d="M651.262 292.051C600.835 293.059 560.752 334.775 561.76 385.202C562.768 435.672 604.484 475.755 654.912 474.747C705.382 473.739 745.464 432.022 744.456 381.553C743.449 331.125 701.732 291.042 651.262 292.051ZM653.961 427.152C629.799 427.635 609.837 408.413 609.355 384.251C608.872 360.089 628.051 340.127 652.213 339.645C676.418 339.161 696.379 358.34 696.862 382.502C697.345 406.665 678.167 426.669 653.961 427.152Z" fill="url(#paint42_linear_28_545)"/>
<path d="M779.765 380.58C779.641 374.344 779.031 368.205 778.026 362.207L799.503 358.592C799.049 355.813 798.463 353.037 797.877 350.305L776.644 355.11C775.241 349.075 773.442 343.226 771.204 337.518L791.534 329.634C790.508 326.999 789.394 324.411 788.237 321.867L768.416 330.893C765.826 325.28 762.886 319.896 759.553 314.741L777.858 302.915C776.35 300.555 774.754 298.198 773.072 295.93L755.407 308.806C751.812 303.834 747.869 299.177 743.49 294.795L759.114 279.482C757.171 277.485 755.096 275.491 753.022 273.585L738.3 289.765C733.747 285.564 728.936 281.766 723.824 278.373L736.073 260.251C733.741 258.704 731.32 257.159 728.902 255.703L717.728 274.512C712.488 271.342 706.991 268.619 701.279 266.256L709.593 246.044C706.961 244.991 704.286 243.982 701.657 243.061L694.502 263.692C688.753 261.683 682.792 260.077 676.706 258.915L680.748 237.505C677.994 236.985 675.152 236.511 672.357 236.168L669.559 257.773C663.57 257.008 657.412 256.645 651.174 256.724L650.827 234.96L650.119 234.974C647.554 235.025 644.945 235.122 642.381 235.306L643.967 257.046C637.736 257.479 631.647 258.398 625.7 259.711L621.026 238.387C618.251 239.018 615.521 239.692 612.792 240.454L618.699 261.444C612.759 263.112 606.96 265.263 601.39 267.72L592.497 247.852C589.908 248.965 587.366 250.21 584.869 251.5L594.904 270.902C589.428 273.711 584.183 276.957 579.21 280.508L566.465 262.797C564.197 264.435 561.931 266.162 559.754 267.931L573.501 284.915C568.711 288.772 564.194 293.021 560.036 297.53L543.986 282.717C542.08 284.746 540.22 286.907 538.45 289.066L555.322 302.979C551.345 307.704 547.816 312.731 544.648 318.016L525.969 306.707C524.513 309.125 523.102 311.587 521.78 314.092L541.1 324.282C538.199 329.695 535.701 335.32 533.693 341.157L513.104 333.869C512.184 336.542 511.309 339.259 510.523 341.974L531.441 348.06C529.744 353.892 528.448 359.935 527.598 366.059L506.032 363.082C505.646 365.878 505.348 368.716 505.094 371.509L526.856 373.243C526.497 377.41 526.36 381.616 526.445 385.906C526.484 387.853 526.566 389.754 526.736 391.654L504.949 393.062C505.139 395.891 505.416 398.717 505.737 401.498L527.368 398.853C528.11 405.034 529.338 411.072 530.916 416.97L509.922 422.699C510.641 425.429 511.492 428.155 512.385 430.793L533.044 423.831C535.02 429.677 537.39 435.382 540.198 440.814L520.748 450.716C522.037 453.213 523.415 455.707 524.791 458.158L543.686 447.116C546.714 452.454 550.222 457.517 554.079 462.307L537.005 475.968C538.774 478.145 540.588 480.322 542.489 482.407L558.747 467.834C562.866 472.443 567.289 476.735 572.013 480.623L558.011 497.408C560.17 499.179 562.418 500.949 564.664 502.63L577.677 485.068C582.618 488.774 587.818 492.078 593.231 495.023L582.905 514.213C585.365 515.535 587.913 516.811 590.459 517.999L599.666 498.213C605.206 500.846 610.958 503.032 616.923 504.815L610.703 525.693C613.373 526.481 616.132 527.222 618.888 527.875L623.865 506.712C629.777 508.099 635.859 509.083 642.065 509.579L640.197 531.299C642.99 531.553 645.826 531.717 648.66 531.794L649.287 510.01C651.367 510.101 653.492 510.102 655.615 510.06C659.684 509.979 663.706 509.721 667.678 509.199L670.192 530.877C672.973 530.556 675.796 530.146 678.574 529.647L674.827 508.217C680.957 507.165 686.945 505.629 692.747 503.699L699.534 524.45C702.215 523.555 704.895 522.573 707.485 521.547L699.513 501.263C705.264 498.98 710.83 496.302 716.124 493.276L726.989 512.175C729.395 510.8 731.843 509.29 734.159 507.784L722.243 489.481C727.398 486.148 732.281 482.421 736.844 478.304L751.332 494.697C753.463 492.84 755.504 490.896 757.5 488.909L742.144 473.374C746.527 469.083 750.595 464.444 754.258 459.503L771.734 472.65C773.415 470.404 775.051 468.115 776.642 465.782L758.433 453.623C761.915 448.509 764.951 443.182 767.538 437.6L787.284 446.984C788.517 444.438 789.659 441.804 790.714 439.217L770.504 430.991C772.825 425.325 774.699 419.491 776.171 413.443L797.338 418.596C798.036 415.883 798.599 413.084 799.12 410.329L777.713 406.421C778.789 400.425 779.463 394.305 779.692 388.061L801.479 388.865C801.556 386.076 801.588 383.243 801.534 380.501L801.525 380.059L779.765 380.58ZM655.252 491.748C595.493 492.942 545.91 445.3 544.716 385.542C543.522 325.783 591.163 276.2 650.922 275.006C710.68 273.812 760.264 321.453 761.457 381.212C762.652 440.971 715.011 490.554 655.252 491.748Z" fill="url(#paint43_linear_28_545)"/>
<path d="M650.855 271.869C589.287 273.099 540.348 324.032 541.578 385.6C542.81 447.221 593.743 496.159 655.311 494.929C716.932 493.698 765.869 442.765 764.639 381.144C763.409 319.576 712.476 270.638 650.855 271.869ZM655.252 491.748C595.493 492.942 545.909 445.301 544.716 385.542C543.521 325.783 591.163 276.2 650.922 275.006C710.68 273.812 760.264 321.453 761.457 381.212C762.652 440.971 715.01 490.554 655.252 491.748Z" fill="url(#paint44_linear_28_545)"/>
<path d="M665.465 103.1C665.966 128.219 646.011 148.988 620.892 149.49C595.774 149.991 575.005 130.035 574.503 104.917C574.001 79.7984 593.957 59.0293 619.075 58.528C644.193 58.0262 664.962 77.9816 665.465 103.1Z" fill="url(#paint45_radial_28_545)"/>
<path d="M618.171 41.3783C583.559 42.0694 556.046 70.7035 556.738 105.316C557.43 139.958 586.064 167.47 620.676 166.779C655.318 166.087 682.831 137.453 682.139 102.811C681.447 68.1983 652.814 40.6863 618.171 41.3783ZM620.024 134.11C603.439 134.442 589.738 121.248 589.406 104.663C589.075 88.0787 602.239 74.3777 618.824 74.0464C635.438 73.7144 649.139 86.8787 649.47 103.463C649.802 120.048 636.638 133.779 620.024 134.11Z" fill="url(#paint46_linear_28_545)"/>
<path d="M618.209 43.2443C584.626 43.9148 557.933 71.6964 558.603 105.279C559.275 138.89 587.057 165.584 620.64 164.913C654.251 164.242 680.945 136.459 680.273 102.848C679.602 69.2661 651.821 42.5728 618.209 43.2443ZM620.006 133.217C603.915 133.538 590.621 120.737 590.3 104.646C589.978 88.5554 602.751 75.2619 618.842 74.9404C634.962 74.6179 648.255 87.3907 648.576 103.482C648.898 119.573 636.126 132.895 620.006 133.217Z" fill="url(#paint47_linear_28_545)"/>
<path d="M703.786 102.202C703.703 98.048 703.298 93.9597 702.628 89.9654L716.932 87.5581C716.63 85.7074 716.239 83.8585 715.849 82.039L701.709 85.2392C700.774 81.2208 699.577 77.3253 698.086 73.524L711.625 68.2731C710.942 66.5187 710.201 64.7949 709.43 63.1011L696.23 69.1116C694.505 65.3737 692.547 61.7881 690.327 58.3553L702.517 50.4789C701.514 48.9075 700.451 47.3376 699.33 45.8274L687.567 54.4018C685.173 51.0906 682.547 47.99 679.63 45.0717L690.035 34.8741C688.741 33.5443 687.359 32.2162 685.978 30.947L676.174 41.722C673.141 38.9246 669.938 36.395 666.534 34.1351L674.691 22.0667C673.138 21.0368 671.526 20.008 669.916 19.038L662.474 31.5637C658.984 29.453 655.323 27.64 651.519 26.0657L657.056 12.6058C655.303 11.9039 653.522 11.232 651.771 10.6188L647.006 24.358C643.178 23.0204 639.207 21.9505 635.155 21.1764L637.846 6.91876C636.012 6.57203 634.12 6.25634 632.259 6.02828L630.395 20.4169C626.406 19.9073 622.305 19.6651 618.151 19.7186L617.92 5.22431L617.449 5.23373C615.741 5.26786 614.003 5.33198 612.296 5.45479L613.352 19.9322C609.203 20.2215 605.148 20.8335 601.187 21.7079L598.074 7.50694C596.226 7.92723 594.408 8.37549 592.591 8.88388L596.524 22.862C592.568 23.9726 588.707 25.405 584.998 27.0411L579.075 13.8098C577.351 14.5517 575.658 15.3808 573.995 16.2392L580.678 29.1607C577.032 31.031 573.538 33.1933 570.226 35.558L561.739 23.7629C560.229 24.8545 558.719 26.0045 557.269 27.1823L566.425 38.4928C563.234 41.0614 560.226 43.8913 557.457 46.8933L546.769 37.0288C545.499 38.3799 544.261 39.8196 543.081 41.2577L554.317 50.5219C551.669 53.6691 549.319 57.0171 547.209 60.5364L534.77 53.005C533.8 54.6158 532.861 56.255 531.98 57.9229L544.846 64.7094C542.914 68.3139 541.25 72.0602 539.914 75.947L526.202 71.0934C525.589 72.8737 525.006 74.6832 524.483 76.4915L538.414 80.545C537.284 84.4281 536.421 88.4531 535.854 92.5313L521.493 90.5487C521.235 92.4106 521.037 94.3007 520.868 96.1604L535.361 97.3152C535.121 100.09 535.03 102.892 535.087 105.748C535.113 107.045 535.167 108.311 535.281 109.576L520.771 110.514C520.898 112.397 521.082 114.28 521.296 116.132L535.701 114.371C536.196 118.487 537.013 122.508 538.064 126.436L524.083 130.251C524.562 132.069 525.128 133.885 525.724 135.641L539.481 131.005C540.797 134.897 542.375 138.697 544.245 142.314L531.293 148.909C532.151 150.571 533.068 152.233 533.985 153.865L546.569 146.511C548.585 150.066 550.921 153.438 553.491 156.628L542.12 165.726C543.298 167.176 544.506 168.625 545.772 170.014L556.599 160.309C559.342 163.378 562.287 166.236 565.433 168.825L556.108 180.004C557.546 181.183 559.043 182.362 560.54 183.481L569.205 171.786C572.496 174.254 575.959 176.454 579.564 178.416L572.687 191.195C574.325 192.076 576.022 192.926 577.718 193.718L583.85 180.54C587.539 182.293 591.37 183.75 595.342 184.937L591.2 198.841C592.979 199.366 594.815 199.859 596.651 200.294L599.965 186.2C603.902 187.123 607.953 187.779 612.085 188.11L610.842 202.574C612.702 202.743 614.59 202.853 616.477 202.904L616.894 188.397C618.28 188.458 619.695 188.458 621.109 188.43C623.819 188.376 626.498 188.205 629.143 187.857L630.816 202.293C632.669 202.08 634.549 201.806 636.399 201.474L633.904 187.202C637.986 186.502 641.973 185.479 645.838 184.194L650.357 198.013C652.143 197.417 653.927 196.762 655.652 196.08L650.343 182.571C654.173 181.05 657.88 179.267 661.406 177.252L668.642 189.838C670.244 188.922 671.874 187.917 673.416 186.913L665.482 174.725C668.915 172.504 672.166 170.023 675.205 167.281L684.853 178.198C686.272 176.961 687.631 175.667 688.961 174.344L678.735 163.998C681.654 161.14 684.362 158.051 686.802 154.761L698.44 163.516C699.559 162.02 700.649 160.496 701.708 158.942L689.582 150.845C691.9 147.439 693.922 143.892 695.645 140.173L708.796 146.424C709.617 144.727 710.377 142.974 711.079 141.25L697.62 135.772C699.165 131.999 700.414 128.114 701.395 124.087L715.49 127.517C715.955 125.711 716.331 123.847 716.677 122.013L702.421 119.409C703.137 115.417 703.586 111.341 703.739 107.183L718.248 107.718C718.3 105.86 718.321 103.974 718.285 102.148L718.278 101.853L703.786 102.202ZM620.865 176.235C581.068 177.03 548.047 145.303 547.253 105.506C546.457 65.7088 578.184 32.6886 617.982 31.8935C657.779 31.098 690.799 62.8251 691.594 102.623C692.389 142.419 660.662 175.44 620.865 176.235Z" fill="url(#paint48_linear_28_545)"/>
<path d="M617.937 29.804C576.935 30.6231 544.344 64.542 545.163 105.544C545.983 146.582 579.903 179.173 620.905 178.354C661.942 177.533 694.533 143.614 693.713 102.577C692.894 61.5747 658.974 28.9842 617.937 29.804ZM620.865 176.235C581.068 177.03 548.047 145.303 547.252 105.506C546.457 65.7083 578.185 32.6881 617.982 31.8934C657.778 31.0984 690.799 62.8251 691.594 102.622C692.389 142.419 660.662 175.44 620.865 176.235Z" fill="url(#paint49_linear_28_545)"/>
<path d="M402.932 514.661C407.735 507.082 424.287 507.319 436.224 510.677C442.202 496.146 445.949 481.098 447.579 465.963C435.432 463.194 419.815 455.575 420.205 446.046C420.572 437.086 435.015 429.024 447.017 425.949C444.937 410.67 440.728 395.706 434.503 381.556C422.605 385.22 405.283 386.435 400.857 377.993C396.691 370.042 405.191 355.82 414.064 347.158C404.79 335.178 393.74 324.316 380.986 315.002C372.517 324.129 358.116 333.832 350.072 328.734C342.492 323.931 342.738 307.384 346.095 295.448C331.565 289.47 316.508 285.717 301.373 284.087C298.606 296.247 290.987 311.864 281.465 311.466C272.503 311.099 264.45 296.662 261.376 284.659C246.102 286.732 231.143 290.932 216.988 297.164C220.647 309.072 221.854 326.389 213.412 330.814C205.46 334.981 191.246 326.485 182.584 317.614C170.601 326.874 159.734 337.933 150.42 350.686C159.547 359.155 169.248 373.543 164.15 381.587C159.355 389.171 142.794 388.928 130.864 385.577C124.888 400.107 121.141 415.155 119.511 430.291C131.657 433.06 147.274 440.679 146.877 450.202C146.509 459.163 132.08 467.222 120.07 470.291C122.144 485.578 126.359 500.535 132.583 514.684C144.49 511.026 161.808 509.818 166.225 518.256C170.391 526.208 161.903 540.425 153.024 549.083C162.292 561.071 173.343 571.933 186.095 581.246C194.573 572.125 208.966 562.416 217.011 567.514C224.59 572.317 224.345 588.864 220.987 600.802C235.518 606.779 250.574 610.532 265.71 612.161C268.479 600.015 276.089 584.392 285.618 584.781C294.579 585.149 302.634 599.586 305.702 611.597C320.983 609.53 335.947 605.322 350.103 599.089C346.44 587.189 345.229 569.859 353.671 565.434C361.623 561.268 375.844 569.768 384.507 578.641C396.489 569.38 407.357 558.321 416.67 545.568C407.534 537.094 397.834 522.705 402.932 514.661ZM224.721 540.939C173.461 508.454 158.239 440.565 190.724 389.305C223.209 338.045 291.1 322.824 342.36 355.31C393.62 387.794 408.84 455.685 376.355 506.945C343.871 558.205 275.981 573.424 224.721 540.939Z" fill="url(#paint50_linear_28_545)"/>
<path d="M411.354 347.211C402.482 355.874 393.98 370.095 398.148 378.047C400.844 383.193 408.338 384.739 416.47 384.341C409.427 384.285 403.252 382.561 400.857 377.993C396.69 370.041 405.191 355.82 414.064 347.157C404.791 335.178 393.74 324.316 380.987 315.002C380.603 315.415 380.195 315.83 379.788 316.244C391.886 325.298 402.46 335.722 411.354 347.211Z" fill="url(#paint51_linear_28_545)"/>
<path d="M278.754 311.52C279.464 311.549 280.16 311.464 280.848 311.324C272.138 310.334 264.377 296.383 261.375 284.659C260.506 284.777 259.65 284.972 258.782 285.103C261.929 297.028 269.888 311.156 278.754 311.52Z" fill="url(#paint52_linear_28_545)"/>
<path d="M343.384 295.501C340.028 307.438 339.782 323.984 347.362 328.789C349.377 330.065 351.79 330.412 354.409 330.073C352.837 329.956 351.365 329.554 350.071 328.734C342.492 323.931 342.738 307.384 346.094 295.447C331.564 289.469 316.508 285.717 301.373 284.086C301.34 284.226 301.299 284.372 301.267 284.513C315.523 286.28 329.689 289.867 343.384 295.501Z" fill="url(#paint53_linear_28_545)"/>
<path d="M444.307 426.002C432.305 429.077 417.862 437.139 417.496 446.1C417.105 455.628 432.724 463.248 444.87 466.017C443.266 480.917 439.584 495.729 433.767 510.049C434.603 510.244 435.425 510.451 436.225 510.676C442.202 496.146 445.949 481.098 447.58 465.963C435.433 463.193 419.815 455.575 420.205 446.046C420.572 437.085 435.015 429.023 447.017 425.948C444.938 410.67 440.729 395.705 434.504 381.556C433.709 381.8 432.888 382.033 432.051 382.253C438.123 396.214 442.259 410.952 444.307 426.002Z" fill="url(#paint54_linear_28_545)"/>
<path d="M184.584 580.058C185.099 580.444 185.573 580.865 186.094 581.245C192.449 574.408 202.126 567.242 209.963 566.229C202.209 565.647 191.72 572.8 184.584 580.058Z" fill="url(#paint55_linear_28_545)"/>
<path d="M353.669 565.433C354.635 564.928 355.695 564.617 356.824 564.462C354.663 564.313 352.663 564.596 350.96 565.488C342.519 569.914 343.729 587.244 347.392 599.143C334.042 605.021 319.96 609.029 305.584 611.208C305.617 611.336 305.668 611.47 305.7 611.597C320.981 609.53 335.945 605.322 350.101 599.089C346.439 587.189 345.228 569.859 353.669 565.433Z" fill="url(#paint56_linear_28_545)"/>
<path d="M283.525 584.978C283.317 584.955 283.116 584.844 282.906 584.834C273.487 584.45 265.952 599.705 263.105 611.788C263.974 611.896 264.839 612.067 265.709 612.161C268.272 600.919 274.985 586.724 283.525 584.978Z" fill="url(#paint57_linear_28_545)"/>
<path d="M207.545 331.84C199.615 331.296 189.39 324.585 182.582 317.613C182.071 318.008 181.593 318.455 181.085 318.857C188.702 326.204 199.793 332.901 207.545 331.84Z" fill="url(#paint58_linear_28_545)"/>
<path d="M416.67 545.568C407.534 537.093 397.834 522.705 402.932 514.661C405.476 510.648 411.323 508.841 418.025 508.513C410.22 508.448 403.104 510.167 400.222 514.715C395.124 522.759 404.825 537.148 413.959 545.622C405.043 557.83 394.673 568.439 383.294 577.45C383.705 577.846 384.117 578.242 384.505 578.64C396.488 569.38 407.355 558.321 416.67 545.568Z" fill="url(#paint59_linear_28_545)"/>
<path d="M331.592 372.301C373.402 398.797 385.861 454.367 359.365 496.177C332.869 537.986 277.299 550.444 235.489 523.948C193.68 497.452 181.221 441.881 207.716 400.073C234.211 358.263 289.782 345.805 331.592 372.301ZM335.389 366.31C290.204 337.675 230.359 351.091 201.724 396.276C173.089 441.461 186.507 501.305 231.692 529.94C276.878 558.575 336.721 545.159 365.356 499.975C393.991 454.789 380.575 394.945 335.389 366.31Z" fill="url(#paint60_linear_28_545)"/>
<path d="M341.904 356.03C392.686 388.211 407.819 455.708 375.636 506.49C343.455 557.271 275.959 572.402 225.177 540.22C174.395 508.038 159.263 440.543 191.443 389.762C223.626 338.98 291.122 323.848 341.904 356.03ZM342.889 354.474C291.168 321.697 222.666 337.054 189.888 388.776C157.11 440.497 172.47 508.998 224.191 541.775C275.914 574.554 344.414 559.197 377.191 507.475C409.969 455.753 394.612 387.252 342.889 354.474Z" fill="url(#paint61_linear_28_545)"/>
<path d="M797.53 230.258C802.294 233.277 802.144 243.68 800.034 251.183C809.167 254.94 818.625 257.295 828.137 258.32C829.878 250.685 834.667 240.869 840.655 241.114C846.287 241.345 851.354 250.423 853.287 257.967C862.889 256.659 872.295 254.014 881.188 250.101C878.885 242.623 878.121 231.736 883.427 228.954C888.425 226.336 897.363 231.679 902.808 237.255C910.337 231.426 917.164 224.481 923.018 216.466C917.282 211.142 911.183 202.091 914.387 197.035C917.407 192.271 927.806 192.426 935.308 194.535C939.066 185.403 941.424 175.939 942.448 166.427C934.806 164.688 924.99 159.9 925.24 153.914C925.471 148.282 934.545 143.221 942.089 141.288C940.786 131.688 938.146 122.287 934.229 113.391C926.745 115.69 915.861 116.449 913.08 111.142C910.461 106.144 915.8 97.2111 921.377 91.7667C915.557 84.2356 908.606 77.4052 900.59 71.5516C895.267 77.2878 886.224 83.3847 881.169 80.1807C876.402 77.1672 876.555 66.7585 878.661 59.2605C869.528 55.5047 860.07 53.1483 850.557 52.1246C848.817 59.7584 844.029 69.5741 838.043 69.3244C832.411 69.0931 827.346 60.0253 825.417 52.4757C815.809 53.7796 806.409 56.4284 797.516 60.3406C799.815 67.8247 800.574 78.7088 795.271 81.4848C790.272 84.1032 781.337 78.7682 775.895 73.1877C768.361 79.0134 761.534 85.9588 755.68 93.9742C761.413 99.3025 767.515 108.349 764.311 113.405C761.292 118.169 750.892 118.014 743.389 115.903C739.632 125.036 737.274 134.5 736.249 144.012C743.884 145.753 753.703 150.536 753.458 156.525C753.227 162.157 744.153 167.219 736.603 169.148C737.903 178.752 740.548 188.158 744.465 197.054C751.944 194.752 762.836 193.991 765.617 199.297C768.236 204.295 762.893 213.233 757.317 218.678C763.137 226.209 770.088 233.039 778.103 238.892C783.431 233.151 792.474 227.054 797.53 230.258ZM781.014 118.251C801.431 86.033 844.1 76.4661 876.318 96.8827C908.535 117.3 918.102 159.971 897.685 192.188C877.268 224.406 834.598 233.972 802.38 213.555C770.162 193.138 760.596 150.468 781.014 118.251Z" fill="url(#paint62_linear_28_545)"/>
<path d="M902.775 235.552C897.33 229.976 888.392 224.633 883.394 227.252C880.16 228.947 879.188 233.657 879.439 238.767C879.474 234.341 880.558 230.459 883.428 228.954C888.426 226.335 897.364 231.678 902.808 237.255C910.338 231.426 917.164 224.481 923.019 216.465C922.759 216.225 922.498 215.968 922.238 215.712C916.548 223.316 909.996 229.962 902.775 235.552Z" fill="url(#paint63_linear_28_545)"/>
<path d="M925.207 152.211C925.188 152.657 925.242 153.095 925.33 153.527C925.952 148.053 934.721 143.175 942.089 141.288C942.015 140.742 941.893 140.203 941.81 139.659C934.316 141.635 925.435 146.638 925.207 152.211Z" fill="url(#paint64_linear_28_545)"/>
<path d="M935.275 192.832C927.773 190.722 917.372 190.568 914.353 195.332C913.551 196.598 913.333 198.114 913.546 199.761C913.62 198.773 913.872 197.848 914.388 197.035C917.407 192.271 927.807 192.425 935.309 194.535C939.066 185.403 941.424 175.939 942.449 166.427C942.361 166.406 942.269 166.381 942.18 166.36C941.07 175.32 938.817 184.224 935.275 192.832Z" fill="url(#paint65_linear_28_545)"/>
<path d="M853.254 256.263C851.321 248.72 846.253 239.642 840.622 239.412C834.633 239.166 829.844 248.983 828.103 256.617C818.738 255.609 809.429 253.294 800.429 249.639C800.306 250.164 800.175 250.681 800.034 251.183C809.167 254.941 818.625 257.296 828.137 258.32C829.878 250.686 834.667 240.87 840.655 241.115C846.287 241.346 851.354 250.423 853.287 257.967C862.889 256.66 872.295 254.015 881.188 250.102C881.034 249.603 880.889 249.087 880.75 248.56C871.976 252.376 862.713 254.975 853.254 256.263Z" fill="url(#paint66_linear_28_545)"/>
<path d="M756.427 93.0241C756.185 93.3478 755.92 93.646 755.681 93.9727C759.978 97.967 764.482 104.049 765.12 108.975C765.485 104.101 760.989 97.5089 756.427 93.0241Z" fill="url(#paint67_linear_28_545)"/>
<path d="M765.619 199.296C765.937 199.903 766.133 200.569 766.229 201.279C766.323 199.921 766.145 198.664 765.585 197.593C762.803 192.288 751.911 193.048 744.432 195.351C740.737 186.96 738.219 178.11 736.849 169.074C736.769 169.095 736.684 169.127 736.605 169.147C737.904 178.752 740.549 188.157 744.466 197.053C751.945 194.752 762.837 193.991 765.619 199.296Z" fill="url(#paint68_linear_28_545)"/>
<path d="M753.335 155.209C753.349 155.079 753.42 154.952 753.425 154.821C753.667 148.901 744.079 144.164 736.485 142.376C736.417 142.921 736.309 143.465 736.25 144.012C743.316 145.623 752.237 149.842 753.335 155.209Z" fill="url(#paint69_linear_28_545)"/>
<path d="M912.436 107.455C912.778 102.471 916.996 96.0445 921.379 91.7657C921.13 91.4444 920.849 91.1435 920.596 90.8249C915.978 95.6121 911.769 102.583 912.436 107.455Z" fill="url(#paint70_linear_28_545)"/>
<path d="M778.105 238.893C783.432 233.151 792.475 227.054 797.53 230.259C800.053 231.857 801.189 235.533 801.394 239.746C801.435 234.839 800.354 230.367 797.496 228.555C792.44 225.351 783.396 231.448 778.07 237.189C770.397 231.585 763.729 225.068 758.066 217.916C757.817 218.174 757.568 218.433 757.319 218.677C763.139 226.209 770.09 233.039 778.105 238.893Z" fill="url(#paint71_linear_28_545)"/>
<path d="M887.005 185.42C870.352 211.698 835.425 219.528 809.148 202.875C782.87 186.223 775.04 151.296 791.693 125.018C808.347 98.7396 843.273 90.9087 869.551 107.562C895.828 124.215 903.659 159.142 887.005 185.42ZM890.771 187.807C908.768 159.407 900.336 121.795 871.937 103.796C843.537 85.7987 805.925 94.2322 787.927 122.631C769.93 151.031 778.362 188.644 806.761 206.641C835.16 224.639 872.773 216.206 890.771 187.807Z" fill="url(#paint72_linear_28_545)"/>
<path d="M897.231 191.901C877.005 223.818 834.583 233.329 802.666 213.102C770.749 192.876 761.239 150.454 781.466 118.536C801.692 86.6192 844.114 77.1081 876.031 97.3345C907.948 117.561 917.458 159.983 897.231 191.901ZM898.209 192.521C918.81 160.013 909.158 116.959 876.65 96.3578C844.142 75.7567 801.089 85.4104 780.488 117.918C759.887 150.426 769.538 193.479 802.046 214.08C834.554 234.681 877.608 225.029 898.209 192.521Z" fill="url(#paint73_linear_28_545)"/>
</g>
<defs>
<linearGradient id="paint0_linear_28_545" x1="335.404" y1="642.472" x2="735.623" y2="634.476" gradientUnits="userSpaceOnUse">
<stop stop-color="#262626"/>
<stop offset="0.1549" stop-color="#3E3E3E"/>
<stop offset="0.3356" stop-color="#5F5F5F"/>
<stop offset="0.553" stop-color="#959595"/>
<stop offset="0.7854" stop-color="#B9B9B9"/>
<stop offset="0.8634" stop-color="#B6B6B6"/>
<stop offset="0.9269" stop-color="#ACACAC"/>
<stop offset="0.9849" stop-color="#9B9B9B"/>
<stop offset="1" stop-color="#959595"/>
</linearGradient>
<linearGradient id="paint1_linear_28_545" x1="532.906" y1="438.31" x2="540.695" y2="828.229" gradientUnits="userSpaceOnUse">
<stop stop-color="#262626"/>
<stop offset="0.1549" stop-color="#3E3E3E"/>
<stop offset="0.3356" stop-color="#5F5F5F"/>
<stop offset="0.553" stop-color="#959595"/>
<stop offset="0.7854" stop-color="#B9B9B9"/>
<stop offset="0.8634" stop-color="#B6B6B6"/>
<stop offset="0.9269" stop-color="#ACACAC"/>
<stop offset="0.9849" stop-color="#9B9B9B"/>
<stop offset="1" stop-color="#959595"/>
</linearGradient>
<linearGradient id="paint2_linear_28_545" x1="335.404" y1="642.481" x2="735.622" y2="634.486" gradientUnits="userSpaceOnUse">
<stop stop-color="#262626"/>
<stop offset="0.1549" stop-color="#3E3E3E"/>
<stop offset="0.3356" stop-color="#5F5F5F"/>
<stop offset="0.553" stop-color="#959595"/>
<stop offset="0.7854" stop-color="#B9B9B9"/>
<stop offset="0.8634" stop-color="#B6B6B6"/>
<stop offset="0.9269" stop-color="#ACACAC"/>
<stop offset="0.9849" stop-color="#9B9B9B"/>
<stop offset="1" stop-color="#959595"/>
</linearGradient>
<linearGradient id="paint3_linear_28_545" x1="335.404" y1="642.468" x2="735.623" y2="634.473" gradientUnits="userSpaceOnUse">
<stop stop-color="#262626"/>
<stop offset="0.1549" stop-color="#3E3E3E"/>
<stop offset="0.3356" stop-color="#5F5F5F"/>
<stop offset="0.553" stop-color="#959595"/>
<stop offset="0.7854" stop-color="#B9B9B9"/>
<stop offset="0.8634" stop-color="#B6B6B6"/>
<stop offset="0.9269" stop-color="#ACACAC"/>
<stop offset="0.9849" stop-color="#9B9B9B"/>
<stop offset="1" stop-color="#959595"/>
</linearGradient>
<linearGradient id="paint4_linear_28_545" x1="336.907" y1="717.693" x2="737.125" y2="709.698" gradientUnits="userSpaceOnUse">
<stop stop-color="#262626"/>
<stop offset="0.1549" stop-color="#3E3E3E"/>
<stop offset="0.3356" stop-color="#5F5F5F"/>
<stop offset="0.553" stop-color="#959595"/>
<stop offset="0.7854" stop-color="#B9B9B9"/>
<stop offset="0.8634" stop-color="#B6B6B6"/>
<stop offset="0.9269" stop-color="#ACACAC"/>
<stop offset="0.9849" stop-color="#9B9B9B"/>
<stop offset="1" stop-color="#959595"/>
</linearGradient>
<linearGradient id="paint5_linear_28_545" x1="337.394" y1="742.166" x2="737.615" y2="734.171" gradientUnits="userSpaceOnUse">
<stop stop-color="#262626"/>
<stop offset="0.1549" stop-color="#3E3E3E"/>
<stop offset="0.3356" stop-color="#5F5F5F"/>
<stop offset="0.553" stop-color="#959595"/>
<stop offset="0.7854" stop-color="#B9B9B9"/>
<stop offset="0.8634" stop-color="#B6B6B6"/>
<stop offset="0.9269" stop-color="#ACACAC"/>
<stop offset="0.9849" stop-color="#9B9B9B"/>
<stop offset="1" stop-color="#959595"/>
</linearGradient>
<linearGradient id="paint6_linear_28_545" x1="335.555" y1="650.077" x2="735.775" y2="642.081" gradientUnits="userSpaceOnUse">
<stop stop-color="#262626"/>
<stop offset="0.1549" stop-color="#3E3E3E"/>
<stop offset="0.3356" stop-color="#5F5F5F"/>
<stop offset="0.553" stop-color="#959595"/>
<stop offset="0.7854" stop-color="#B9B9B9"/>
<stop offset="0.8634" stop-color="#B6B6B6"/>
<stop offset="0.9269" stop-color="#ACACAC"/>
<stop offset="0.9849" stop-color="#9B9B9B"/>
<stop offset="1" stop-color="#959595"/>
</linearGradient>
<linearGradient id="paint7_linear_28_545" x1="333.283" y1="536.353" x2="733.505" y2="528.357" gradientUnits="userSpaceOnUse">
<stop stop-color="#262626"/>
<stop offset="0.1549" stop-color="#3E3E3E"/>
<stop offset="0.3356" stop-color="#5F5F5F"/>
<stop offset="0.553" stop-color="#959595"/>
<stop offset="0.7854" stop-color="#B9B9B9"/>
<stop offset="0.8634" stop-color="#B6B6B6"/>
<stop offset="0.9269" stop-color="#ACACAC"/>
<stop offset="0.9849" stop-color="#9B9B9B"/>
<stop offset="1" stop-color="#959595"/>
</linearGradient>
<linearGradient id="paint8_linear_28_545" x1="334.661" y1="605.299" x2="734.88" y2="597.303" gradientUnits="userSpaceOnUse">
<stop stop-color="#262626"/>
<stop offset="0.1549" stop-color="#3E3E3E"/>
<stop offset="0.3356" stop-color="#5F5F5F"/>
<stop offset="0.553" stop-color="#959595"/>
<stop offset="0.7854" stop-color="#B9B9B9"/>
<stop offset="0.8634" stop-color="#B6B6B6"/>
<stop offset="0.9269" stop-color="#ACACAC"/>
<stop offset="0.9849" stop-color="#9B9B9B"/>
<stop offset="1" stop-color="#959595"/>
</linearGradient>
<linearGradient id="paint9_linear_28_545" x1="534.963" y1="540.996" x2="538.422" y2="714.106" gradientUnits="userSpaceOnUse">
<stop stop-color="#262626"/>
<stop offset="0.1549" stop-color="#3E3E3E"/>
<stop offset="0.3356" stop-color="#5F5F5F"/>
<stop offset="0.553" stop-color="#959595"/>
<stop offset="0.7854" stop-color="#B9B9B9"/>
<stop offset="0.8634" stop-color="#B6B6B6"/>
<stop offset="0.9269" stop-color="#ACACAC"/>
<stop offset="0.9849" stop-color="#9B9B9B"/>
<stop offset="1" stop-color="#959595"/>
</linearGradient>
<linearGradient id="paint10_linear_28_545" x1="260.246" y1="160.936" x2="549.827" y2="155.151" gradientUnits="userSpaceOnUse">
<stop stop-color="#262626"/>
<stop offset="0.1549" stop-color="#3E3E3E"/>
<stop offset="0.3356" stop-color="#5F5F5F"/>
<stop offset="0.553" stop-color="#959595"/>
<stop offset="0.7854" stop-color="#B9B9B9"/>
<stop offset="0.8634" stop-color="#B6B6B6"/>
<stop offset="0.9269" stop-color="#ACACAC"/>
<stop offset="0.9849" stop-color="#9B9B9B"/>
<stop offset="1" stop-color="#959595"/>
</linearGradient>
<linearGradient id="paint11_linear_28_545" x1="403.149" y1="13.2141" x2="408.785" y2="295.342" gradientUnits="userSpaceOnUse">
<stop stop-color="#262626"/>
<stop offset="0.1549" stop-color="#3E3E3E"/>
<stop offset="0.3356" stop-color="#5F5F5F"/>
<stop offset="0.553" stop-color="#959595"/>
<stop offset="0.7854" stop-color="#B9B9B9"/>
<stop offset="0.8634" stop-color="#B6B6B6"/>
<stop offset="0.9269" stop-color="#ACACAC"/>
<stop offset="0.9849" stop-color="#9B9B9B"/>
<stop offset="1" stop-color="#959595"/>
</linearGradient>
<linearGradient id="paint12_linear_28_545" x1="260.246" y1="160.943" x2="549.826" y2="155.158" gradientUnits="userSpaceOnUse">
<stop stop-color="#262626"/>
<stop offset="0.1549" stop-color="#3E3E3E"/>
<stop offset="0.3356" stop-color="#5F5F5F"/>
<stop offset="0.553" stop-color="#959595"/>
<stop offset="0.7854" stop-color="#B9B9B9"/>
<stop offset="0.8634" stop-color="#B6B6B6"/>
<stop offset="0.9269" stop-color="#ACACAC"/>
<stop offset="0.9849" stop-color="#9B9B9B"/>
<stop offset="1" stop-color="#959595"/>
</linearGradient>
<linearGradient id="paint13_linear_28_545" x1="260.246" y1="160.933" x2="549.825" y2="155.148" gradientUnits="userSpaceOnUse">
<stop stop-color="#262626"/>
<stop offset="0.1549" stop-color="#3E3E3E"/>
<stop offset="0.3356" stop-color="#5F5F5F"/>
<stop offset="0.553" stop-color="#959595"/>
<stop offset="0.7854" stop-color="#B9B9B9"/>
<stop offset="0.8634" stop-color="#B6B6B6"/>
<stop offset="0.9269" stop-color="#ACACAC"/>
<stop offset="0.9849" stop-color="#9B9B9B"/>
<stop offset="1" stop-color="#959595"/>
</linearGradient>
<linearGradient id="paint14_linear_28_545" x1="261.333" y1="215.363" x2="550.913" y2="209.578" gradientUnits="userSpaceOnUse">
<stop stop-color="#262626"/>
<stop offset="0.1549" stop-color="#3E3E3E"/>
<stop offset="0.3356" stop-color="#5F5F5F"/>
<stop offset="0.553" stop-color="#959595"/>
<stop offset="0.7854" stop-color="#B9B9B9"/>
<stop offset="0.8634" stop-color="#B6B6B6"/>
<stop offset="0.9269" stop-color="#ACACAC"/>
<stop offset="0.9849" stop-color="#9B9B9B"/>
<stop offset="1" stop-color="#959595"/>
</linearGradient>
<linearGradient id="paint15_linear_28_545" x1="261.688" y1="233.07" x2="551.266" y2="227.285" gradientUnits="userSpaceOnUse">
<stop stop-color="#262626"/>
<stop offset="0.1549" stop-color="#3E3E3E"/>
<stop offset="0.3356" stop-color="#5F5F5F"/>
<stop offset="0.553" stop-color="#959595"/>
<stop offset="0.7854" stop-color="#B9B9B9"/>
<stop offset="0.8634" stop-color="#B6B6B6"/>
<stop offset="0.9269" stop-color="#ACACAC"/>
<stop offset="0.9849" stop-color="#9B9B9B"/>
<stop offset="1" stop-color="#959595"/>
</linearGradient>
<linearGradient id="paint16_linear_28_545" x1="260.357" y1="166.439" x2="549.937" y2="160.653" gradientUnits="userSpaceOnUse">
<stop stop-color="#262626"/>
<stop offset="0.1549" stop-color="#3E3E3E"/>
<stop offset="0.3356" stop-color="#5F5F5F"/>
<stop offset="0.553" stop-color="#959595"/>
<stop offset="0.7854" stop-color="#B9B9B9"/>
<stop offset="0.8634" stop-color="#B6B6B6"/>
<stop offset="0.9269" stop-color="#ACACAC"/>
<stop offset="0.9849" stop-color="#9B9B9B"/>
<stop offset="1" stop-color="#959595"/>
</linearGradient>
<linearGradient id="paint17_linear_28_545" x1="258.71" y1="84.1528" x2="548.295" y2="78.3674" gradientUnits="userSpaceOnUse">
<stop stop-color="#262626"/>
<stop offset="0.1549" stop-color="#3E3E3E"/>
<stop offset="0.3356" stop-color="#5F5F5F"/>
<stop offset="0.553" stop-color="#959595"/>
<stop offset="0.7854" stop-color="#B9B9B9"/>
<stop offset="0.8634" stop-color="#B6B6B6"/>
<stop offset="0.9269" stop-color="#ACACAC"/>
<stop offset="0.9849" stop-color="#9B9B9B"/>
<stop offset="1" stop-color="#959595"/>
</linearGradient>
<linearGradient id="paint18_linear_28_545" x1="259.708" y1="134.04" x2="549.289" y2="128.254" gradientUnits="userSpaceOnUse">
<stop stop-color="#262626"/>
<stop offset="0.1549" stop-color="#3E3E3E"/>
<stop offset="0.3356" stop-color="#5F5F5F"/>
<stop offset="0.553" stop-color="#959595"/>
<stop offset="0.7854" stop-color="#B9B9B9"/>
<stop offset="0.8634" stop-color="#B6B6B6"/>
<stop offset="0.9269" stop-color="#ACACAC"/>
<stop offset="0.9849" stop-color="#9B9B9B"/>
<stop offset="1" stop-color="#959595"/>
</linearGradient>
<linearGradient id="paint19_linear_28_545" x1="404.638" y1="87.5124" x2="407.141" y2="212.767" gradientUnits="userSpaceOnUse">
<stop stop-color="#262626"/>
<stop offset="0.1549" stop-color="#3E3E3E"/>
<stop offset="0.3356" stop-color="#5F5F5F"/>
<stop offset="0.553" stop-color="#959595"/>
<stop offset="0.7854" stop-color="#B9B9B9"/>
<stop offset="0.8634" stop-color="#B6B6B6"/>
<stop offset="0.9269" stop-color="#ACACAC"/>
<stop offset="0.9849" stop-color="#9B9B9B"/>
<stop offset="1" stop-color="#959595"/>
</linearGradient>
<linearGradient id="paint20_linear_28_545" x1="780.64" y1="328.644" x2="979.492" y2="324.671" gradientUnits="userSpaceOnUse">
<stop stop-color="#262626"/>
<stop offset="0.1549" stop-color="#3E3E3E"/>
<stop offset="0.3356" stop-color="#5F5F5F"/>
<stop offset="0.553" stop-color="#959595"/>
<stop offset="0.7854" stop-color="#B9B9B9"/>
<stop offset="0.8634" stop-color="#B6B6B6"/>
<stop offset="0.9269" stop-color="#ACACAC"/>
<stop offset="0.9849" stop-color="#9B9B9B"/>
<stop offset="1" stop-color="#959595"/>
</linearGradient>
<linearGradient id="paint21_linear_28_545" x1="878.77" y1="227.205" x2="882.641" y2="420.94" gradientUnits="userSpaceOnUse">
<stop stop-color="#262626"/>
<stop offset="0.1549" stop-color="#3E3E3E"/>
<stop offset="0.3356" stop-color="#5F5F5F"/>
<stop offset="0.553" stop-color="#959595"/>
<stop offset="0.7854" stop-color="#B9B9B9"/>
<stop offset="0.8634" stop-color="#B6B6B6"/>
<stop offset="0.9269" stop-color="#ACACAC"/>
<stop offset="0.9849" stop-color="#9B9B9B"/>
<stop offset="1" stop-color="#959595"/>
</linearGradient>
<linearGradient id="paint22_linear_28_545" x1="780.639" y1="328.649" x2="979.492" y2="324.676" gradientUnits="userSpaceOnUse">
<stop stop-color="#262626"/>
<stop offset="0.1549" stop-color="#3E3E3E"/>
<stop offset="0.3356" stop-color="#5F5F5F"/>
<stop offset="0.553" stop-color="#959595"/>
<stop offset="0.7854" stop-color="#B9B9B9"/>
<stop offset="0.8634" stop-color="#B6B6B6"/>
<stop offset="0.9269" stop-color="#ACACAC"/>
<stop offset="0.9849" stop-color="#9B9B9B"/>
<stop offset="1" stop-color="#959595"/>
</linearGradient>
<linearGradient id="paint23_linear_28_545" x1="780.639" y1="328.642" x2="979.492" y2="324.67" gradientUnits="userSpaceOnUse">
<stop stop-color="#262626"/>
<stop offset="0.1549" stop-color="#3E3E3E"/>
<stop offset="0.3356" stop-color="#5F5F5F"/>
<stop offset="0.553" stop-color="#959595"/>
<stop offset="0.7854" stop-color="#B9B9B9"/>
<stop offset="0.8634" stop-color="#B6B6B6"/>
<stop offset="0.9269" stop-color="#ACACAC"/>
<stop offset="0.9849" stop-color="#9B9B9B"/>
<stop offset="1" stop-color="#959595"/>
</linearGradient>
<linearGradient id="paint24_linear_28_545" x1="781.386" y1="366.019" x2="980.237" y2="362.046" gradientUnits="userSpaceOnUse">
<stop stop-color="#262626"/>
<stop offset="0.1549" stop-color="#3E3E3E"/>
<stop offset="0.3356" stop-color="#5F5F5F"/>
<stop offset="0.553" stop-color="#959595"/>
<stop offset="0.7854" stop-color="#B9B9B9"/>
<stop offset="0.8634" stop-color="#B6B6B6"/>
<stop offset="0.9269" stop-color="#ACACAC"/>
<stop offset="0.9849" stop-color="#9B9B9B"/>
<stop offset="1" stop-color="#959595"/>
</linearGradient>
<linearGradient id="paint25_linear_28_545" x1="781.629" y1="378.179" x2="980.481" y2="374.206" gradientUnits="userSpaceOnUse">
<stop stop-color="#262626"/>
<stop offset="0.1549" stop-color="#3E3E3E"/>
<stop offset="0.3356" stop-color="#5F5F5F"/>
<stop offset="0.553" stop-color="#959595"/>
<stop offset="0.7854" stop-color="#B9B9B9"/>
<stop offset="0.8634" stop-color="#B6B6B6"/>
<stop offset="0.9269" stop-color="#ACACAC"/>
<stop offset="0.9849" stop-color="#9B9B9B"/>
<stop offset="1" stop-color="#959595"/>
</linearGradient>
<linearGradient id="paint26_linear_28_545" x1="780.715" y1="332.423" x2="979.568" y2="328.45" gradientUnits="userSpaceOnUse">
<stop stop-color="#262626"/>
<stop offset="0.1549" stop-color="#3E3E3E"/>
<stop offset="0.3356" stop-color="#5F5F5F"/>
<stop offset="0.553" stop-color="#959595"/>
<stop offset="0.7854" stop-color="#B9B9B9"/>
<stop offset="0.8634" stop-color="#B6B6B6"/>
<stop offset="0.9269" stop-color="#ACACAC"/>
<stop offset="0.9849" stop-color="#9B9B9B"/>
<stop offset="1" stop-color="#959595"/>
</linearGradient>
<linearGradient id="paint27_linear_28_545" x1="779.586" y1="275.918" x2="978.44" y2="271.945" gradientUnits="userSpaceOnUse">
<stop stop-color="#262626"/>
<stop offset="0.1549" stop-color="#3E3E3E"/>
<stop offset="0.3356" stop-color="#5F5F5F"/>
<stop offset="0.553" stop-color="#959595"/>
<stop offset="0.7854" stop-color="#B9B9B9"/>
<stop offset="0.8634" stop-color="#B6B6B6"/>
<stop offset="0.9269" stop-color="#ACACAC"/>
<stop offset="0.9849" stop-color="#9B9B9B"/>
<stop offset="1" stop-color="#959595"/>
</linearGradient>
<linearGradient id="paint28_linear_28_545" x1="780.27" y1="310.175" x2="979.123" y2="306.202" gradientUnits="userSpaceOnUse">
<stop stop-color="#262626"/>
<stop offset="0.1549" stop-color="#3E3E3E"/>
<stop offset="0.3356" stop-color="#5F5F5F"/>
<stop offset="0.553" stop-color="#959595"/>
<stop offset="0.7854" stop-color="#B9B9B9"/>
<stop offset="0.8634" stop-color="#B6B6B6"/>
<stop offset="0.9269" stop-color="#ACACAC"/>
<stop offset="0.9849" stop-color="#9B9B9B"/>
<stop offset="1" stop-color="#959595"/>
</linearGradient>
<linearGradient id="paint29_linear_28_545" x1="879.792" y1="278.225" x2="881.511" y2="364.236" gradientUnits="userSpaceOnUse">
<stop stop-color="#262626"/>
<stop offset="0.1549" stop-color="#3E3E3E"/>
<stop offset="0.3356" stop-color="#5F5F5F"/>
<stop offset="0.553" stop-color="#959595"/>
<stop offset="0.7854" stop-color="#B9B9B9"/>
<stop offset="0.8634" stop-color="#B6B6B6"/>
<stop offset="0.9269" stop-color="#ACACAC"/>
<stop offset="0.9849" stop-color="#9B9B9B"/>
<stop offset="1" stop-color="#959595"/>
</linearGradient>
<linearGradient id="paint30_linear_28_545" x1="729.297" y1="433.659" x2="733.875" y2="662.775" gradientUnits="userSpaceOnUse">
<stop/>
<stop offset="0.2476" stop-color="#000920"/>
<stop offset="0.4101" stop-color="#040915"/>
<stop offset="0.5481" stop-color="#0C1017"/>
<stop offset="0.6725" stop-color="#505050"/>
<stop offset="0.7877" stop-color="#777777"/>
<stop offset="0.8946" stop-color="#939393"/>
<stop offset="0.996" stop-color="#939394"/>
<stop offset="1" stop-color="#959595"/>
</linearGradient>
<linearGradient id="paint31_linear_28_545" x1="729.499" y1="443.772" x2="733.683" y2="653.186" gradientUnits="userSpaceOnUse">
<stop/>
<stop offset="0.2476" stop-color="#000920"/>
<stop offset="0.4101" stop-color="#040915"/>
<stop offset="0.5481" stop-color="#0C1017"/>
<stop offset="0.6725" stop-color="#505050"/>
<stop offset="0.7877" stop-color="#777777"/>
<stop offset="0.8946" stop-color="#939393"/>
<stop offset="0.996" stop-color="#939394"/>
<stop offset="1" stop-color="#959595"/>
</linearGradient>
<linearGradient id="paint32_linear_28_545" x1="729.17" y1="424.473" x2="734.219" y2="671.477" gradientUnits="userSpaceOnUse">
<stop/>
<stop offset="0.2476" stop-color="#000920"/>
<stop offset="0.4101" stop-color="#040915"/>
<stop offset="0.5481" stop-color="#0C1017"/>
<stop offset="0.6725" stop-color="#505050"/>
<stop offset="0.7877" stop-color="#777777"/>
<stop offset="0.8946" stop-color="#939393"/>
<stop offset="0.996" stop-color="#939394"/>
<stop offset="1" stop-color="#959595"/>
</linearGradient>
<linearGradient id="paint33_linear_28_545" x1="731.03" y1="520.731" x2="732.213" y2="580.212" gradientUnits="userSpaceOnUse">
<stop/>
<stop offset="0.2476" stop-color="#000920"/>
<stop offset="0.4101" stop-color="#040915"/>
<stop offset="0.5481" stop-color="#0C1017"/>
<stop offset="0.6725" stop-color="#505050"/>
<stop offset="0.7877" stop-color="#777777"/>
<stop offset="0.8946" stop-color="#939393"/>
<stop offset="0.996" stop-color="#939394"/>
<stop offset="1" stop-color="#959595"/>
</linearGradient>
<linearGradient id="paint34_linear_28_545" x1="704.76" y1="574.827" x2="712.032" y2="584.114" gradientUnits="userSpaceOnUse">
<stop/>
<stop offset="0.2476" stop-color="#000920"/>
<stop offset="0.4101" stop-color="#040915"/>
<stop offset="0.5481" stop-color="#0C1017"/>
<stop offset="0.6725" stop-color="#505050"/>
<stop offset="0.7877" stop-color="#777777"/>
<stop offset="0.8946" stop-color="#939393"/>
<stop offset="0.996" stop-color="#939394"/>
<stop offset="1" stop-color="#959595"/>
</linearGradient>
<linearGradient id="paint35_linear_28_545" x1="745.77" y1="581.51" x2="735.8" y2="620.052" gradientUnits="userSpaceOnUse">
<stop/>
<stop offset="0.2476" stop-color="#000920"/>
<stop offset="0.4101" stop-color="#040915"/>
<stop offset="0.5481" stop-color="#0C1017"/>
<stop offset="0.6725" stop-color="#505050"/>
<stop offset="0.7877" stop-color="#777777"/>
<stop offset="0.8946" stop-color="#939393"/>
<stop offset="0.996" stop-color="#939394"/>
<stop offset="1" stop-color="#959595"/>
</linearGradient>
<linearGradient id="paint36_linear_28_545" x1="786.911" y1="529.721" x2="785.302" y2="577.25" gradientUnits="userSpaceOnUse">
<stop/>
<stop offset="0.2476" stop-color="#000920"/>
<stop offset="0.4101" stop-color="#040915"/>
<stop offset="0.5481" stop-color="#0C1017"/>
<stop offset="0.6725" stop-color="#505050"/>
<stop offset="0.7877" stop-color="#777777"/>
<stop offset="0.8946" stop-color="#939393"/>
<stop offset="0.996" stop-color="#939394"/>
<stop offset="1" stop-color="#959595"/>
</linearGradient>
<linearGradient id="paint37_linear_28_545" x1="724.615" y1="469.865" x2="723.009" y2="517.391" gradientUnits="userSpaceOnUse">
<stop/>
<stop offset="0.2476" stop-color="#000920"/>
<stop offset="0.4101" stop-color="#040915"/>
<stop offset="0.5481" stop-color="#0C1017"/>
<stop offset="0.6725" stop-color="#505050"/>
<stop offset="0.7877" stop-color="#777777"/>
<stop offset="0.8946" stop-color="#939393"/>
<stop offset="0.996" stop-color="#939394"/>
<stop offset="1" stop-color="#959595"/>
</linearGradient>
<linearGradient id="paint38_linear_28_545" x1="670.794" y1="509.47" x2="660.823" y2="548.013" gradientUnits="userSpaceOnUse">
<stop/>
<stop offset="0.2476" stop-color="#000920"/>
<stop offset="0.4101" stop-color="#040915"/>
<stop offset="0.5481" stop-color="#0C1017"/>
<stop offset="0.6725" stop-color="#505050"/>
<stop offset="0.7877" stop-color="#777777"/>
<stop offset="0.8946" stop-color="#939393"/>
<stop offset="0.996" stop-color="#939394"/>
<stop offset="1" stop-color="#959595"/>
</linearGradient>
<linearGradient id="paint39_linear_28_545" x1="730.503" y1="494.534" x2="732.701" y2="605.059" gradientUnits="userSpaceOnUse">
<stop/>
<stop offset="0.2476" stop-color="#000920"/>
<stop offset="0.4101" stop-color="#040915"/>
<stop offset="0.5481" stop-color="#0C1017"/>
<stop offset="0.6725" stop-color="#505050"/>
<stop offset="0.7877" stop-color="#777777"/>
<stop offset="0.8946" stop-color="#939393"/>
<stop offset="0.996" stop-color="#939394"/>
<stop offset="1" stop-color="#959595"/>
</linearGradient>
<radialGradient id="paint40_radial_28_545" cx="0" cy="0" r="1" gradientUnits="userSpaceOnUse" gradientTransform="translate(653.927 383.294) rotate(-1.14449) scale(68.307)">
<stop offset="0.3532" stop-color="#C2C2C2"/>
<stop offset="0.3896" stop-color="#BDBDBD"/>
<stop offset="0.4358" stop-color="#ADADAE"/>
<stop offset="0.4871" stop-color="#939496"/>
<stop offset="0.5422" stop-color="#6F7174"/>
<stop offset="0.5998" stop-color="#414449"/>
<stop offset="0.6318" stop-color="#24282E"/>
<stop offset="0.6401" stop-color="#2E3237"/>
<stop offset="0.6767" stop-color="#55585C"/>
<stop offset="0.7159" stop-color="#77797C"/>
<stop offset="0.7575" stop-color="#929495"/>
<stop offset="0.8024" stop-color="#A8A8A9"/>
<stop offset="0.8523" stop-color="#B6B7B7"/>
<stop offset="0.9109" stop-color="#BFBFBF"/>
<stop offset="1" stop-color="#C2C2C2"/>
</radialGradient>
<linearGradient id="paint41_linear_28_545" x1="569.029" y1="302.612" x2="738.033" y2="464.996" gradientUnits="userSpaceOnUse">
<stop stop-color="#262626"/>
<stop offset="0.1549" stop-color="#3E3E3E"/>
<stop offset="0.3356" stop-color="#5F5F5F"/>
<stop offset="0.553" stop-color="#959595"/>
<stop offset="0.7854" stop-color="#B9B9B9"/>
<stop offset="0.8634" stop-color="#B6B6B6"/>
<stop offset="0.9269" stop-color="#ACACAC"/>
<stop offset="0.9849" stop-color="#9B9B9B"/>
<stop offset="1" stop-color="#959595"/>
</linearGradient>
<linearGradient id="paint42_linear_28_545" x1="571.189" y1="468.652" x2="740.249" y2="292.7" gradientUnits="userSpaceOnUse">
<stop stop-color="#262626"/>
<stop offset="0.1549" stop-color="#3E3E3E"/>
<stop offset="0.3356" stop-color="#5F5F5F"/>
<stop offset="0.553" stop-color="#959595"/>
<stop offset="0.7854" stop-color="#B9B9B9"/>
<stop offset="0.8634" stop-color="#B6B6B6"/>
<stop offset="0.9269" stop-color="#ACACAC"/>
<stop offset="0.9849" stop-color="#9B9B9B"/>
<stop offset="1" stop-color="#959595"/>
</linearGradient>
<linearGradient id="paint43_linear_28_545" x1="526.198" y1="515.438" x2="779.649" y2="251.654" gradientUnits="userSpaceOnUse">
<stop stop-color="#262626"/>
<stop offset="0.1549" stop-color="#3E3E3E"/>
<stop offset="0.3356" stop-color="#5F5F5F"/>
<stop offset="0.553" stop-color="#959595"/>
<stop offset="0.7854" stop-color="#B9B9B9"/>
<stop offset="0.8634" stop-color="#B6B6B6"/>
<stop offset="0.9269" stop-color="#ACACAC"/>
<stop offset="0.9849" stop-color="#9B9B9B"/>
<stop offset="1" stop-color="#959595"/>
</linearGradient>
<linearGradient id="paint44_linear_28_545" x1="573.237" y1="306.655" x2="751.154" y2="477.603" gradientUnits="userSpaceOnUse">
<stop stop-color="#262626"/>
<stop offset="0.1549" stop-color="#3E3E3E"/>
<stop offset="0.3356" stop-color="#5F5F5F"/>
<stop offset="0.553" stop-color="#959595"/>
<stop offset="0.7854" stop-color="#B9B9B9"/>
<stop offset="0.8634" stop-color="#B6B6B6"/>
<stop offset="0.9269" stop-color="#ACACAC"/>
<stop offset="0.9849" stop-color="#9B9B9B"/>
<stop offset="1" stop-color="#959595"/>
</linearGradient>
<radialGradient id="paint45_radial_28_545" cx="0" cy="0" r="1" gradientUnits="userSpaceOnUse" gradientTransform="translate(619.983 104.009) rotate(-1.14449) scale(45.4901)">
<stop offset="0.3532" stop-color="#C2C2C2"/>
<stop offset="0.3896" stop-color="#BDBDBD"/>
<stop offset="0.4358" stop-color="#ADADAE"/>
<stop offset="0.4871" stop-color="#939496"/>
<stop offset="0.5422" stop-color="#6F7174"/>
<stop offset="0.5998" stop-color="#414449"/>
<stop offset="0.6318" stop-color="#24282E"/>
<stop offset="0.6401" stop-color="#2E3237"/>
<stop offset="0.6767" stop-color="#55585C"/>
<stop offset="0.7159" stop-color="#77797C"/>
<stop offset="0.7575" stop-color="#929495"/>
<stop offset="0.8024" stop-color="#A8A8A9"/>
<stop offset="0.8523" stop-color="#B6B7B7"/>
<stop offset="0.9109" stop-color="#BFBFBF"/>
<stop offset="1" stop-color="#C2C2C2"/>
</radialGradient>
<linearGradient id="paint46_linear_28_545" x1="563.445" y1="50.2779" x2="675.995" y2="158.419" gradientUnits="userSpaceOnUse">
<stop stop-color="#262626"/>
<stop offset="0.1549" stop-color="#3E3E3E"/>
<stop offset="0.3356" stop-color="#5F5F5F"/>
<stop offset="0.553" stop-color="#959595"/>
<stop offset="0.7854" stop-color="#B9B9B9"/>
<stop offset="0.8634" stop-color="#B6B6B6"/>
<stop offset="0.9269" stop-color="#ACACAC"/>
<stop offset="0.9849" stop-color="#9B9B9B"/>
<stop offset="1" stop-color="#959595"/>
</linearGradient>
<linearGradient id="paint47_linear_28_545" x1="564.883" y1="160.854" x2="677.47" y2="43.6769" gradientUnits="userSpaceOnUse">
<stop stop-color="#262626"/>
<stop offset="0.1549" stop-color="#3E3E3E"/>
<stop offset="0.3356" stop-color="#5F5F5F"/>
<stop offset="0.553" stop-color="#959595"/>
<stop offset="0.7854" stop-color="#B9B9B9"/>
<stop offset="0.8634" stop-color="#B6B6B6"/>
<stop offset="0.9269" stop-color="#ACACAC"/>
<stop offset="0.9849" stop-color="#9B9B9B"/>
<stop offset="1" stop-color="#959595"/>
</linearGradient>
<linearGradient id="paint48_linear_28_545" x1="534.921" y1="192.012" x2="703.71" y2="16.3418" gradientUnits="userSpaceOnUse">
<stop stop-color="#262626"/>
<stop offset="0.1549" stop-color="#3E3E3E"/>
<stop offset="0.3356" stop-color="#5F5F5F"/>
<stop offset="0.553" stop-color="#959595"/>
<stop offset="0.7854" stop-color="#B9B9B9"/>
<stop offset="0.8634" stop-color="#B6B6B6"/>
<stop offset="0.9269" stop-color="#ACACAC"/>
<stop offset="0.9849" stop-color="#9B9B9B"/>
<stop offset="1" stop-color="#959595"/>
</linearGradient>
<linearGradient id="paint49_linear_28_545" x1="566.246" y1="52.9704" x2="684.733" y2="166.815" gradientUnits="userSpaceOnUse">
<stop stop-color="#262626"/>
<stop offset="0.1549" stop-color="#3E3E3E"/>
<stop offset="0.3356" stop-color="#5F5F5F"/>
<stop offset="0.553" stop-color="#959595"/>
<stop offset="0.7854" stop-color="#B9B9B9"/>
<stop offset="0.8634" stop-color="#B6B6B6"/>
<stop offset="0.9269" stop-color="#ACACAC"/>
<stop offset="0.9849" stop-color="#9B9B9B"/>
<stop offset="1" stop-color="#959595"/>
</linearGradient>
<linearGradient id="paint50_linear_28_545" x1="109.183" y1="451.611" x2="457.4" y2="444.654" gradientUnits="userSpaceOnUse">
<stop stop-color="#262626"/>
<stop offset="0.1549" stop-color="#3E3E3E"/>
<stop offset="0.3356" stop-color="#5F5F5F"/>
<stop offset="0.553" stop-color="#959595"/>
<stop offset="0.7854" stop-color="#B9B9B9"/>
<stop offset="0.8634" stop-color="#B6B6B6"/>
<stop offset="0.9269" stop-color="#ACACAC"/>
<stop offset="0.9849" stop-color="#9B9B9B"/>
<stop offset="1" stop-color="#959595"/>
</linearGradient>
<linearGradient id="paint51_linear_28_545" x1="379.331" y1="350.069" x2="416.849" y2="349.32" gradientUnits="userSpaceOnUse">
<stop offset="0.1169" stop-color="#262626"/>
<stop offset="0.2329" stop-color="#2A2A2A"/>
<stop offset="0.3429" stop-color="#353535"/>
<stop offset="0.4507" stop-color="#484848"/>
<stop offset="0.5569" stop-color="#636363"/>
<stop offset="0.6622" stop-color="#868686"/>
<stop offset="0.7653" stop-color="#B0B0B0"/>
<stop offset="0.7854" stop-color="#B9B9B9"/>
<stop offset="0.8634" stop-color="#B6B6B6"/>
<stop offset="0.9269" stop-color="#ACACAC"/>
<stop offset="0.9849" stop-color="#9B9B9B"/>
<stop offset="1" stop-color="#959595"/>
</linearGradient>
<linearGradient id="paint52_linear_28_545" x1="258.356" y1="298.33" x2="281.237" y2="297.872" gradientUnits="userSpaceOnUse">
<stop offset="0.1169" stop-color="#262626"/>
<stop offset="0.2329" stop-color="#2A2A2A"/>
<stop offset="0.3429" stop-color="#353535"/>
<stop offset="0.4507" stop-color="#484848"/>
<stop offset="0.5569" stop-color="#636363"/>
<stop offset="0.6622" stop-color="#868686"/>
<stop offset="0.7653" stop-color="#B0B0B0"/>
<stop offset="0.7854" stop-color="#B9B9B9"/>
<stop offset="0.8634" stop-color="#B6B6B6"/>
<stop offset="0.9269" stop-color="#ACACAC"/>
<stop offset="0.9849" stop-color="#9B9B9B"/>
<stop offset="1" stop-color="#959595"/>
</linearGradient>
<linearGradient id="paint53_linear_28_545" x1="300.055" y1="307.68" x2="355.535" y2="306.572" gradientUnits="userSpaceOnUse">
<stop offset="0.1169" stop-color="#262626"/>
<stop offset="0.2329" stop-color="#2A2A2A"/>
<stop offset="0.3429" stop-color="#353535"/>
<stop offset="0.4507" stop-color="#484848"/>
<stop offset="0.5569" stop-color="#636363"/>
<stop offset="0.6622" stop-color="#868686"/>
<stop offset="0.7653" stop-color="#B0B0B0"/>
<stop offset="0.7854" stop-color="#B9B9B9"/>
<stop offset="0.8634" stop-color="#B6B6B6"/>
<stop offset="0.9269" stop-color="#ACACAC"/>
<stop offset="0.9849" stop-color="#9B9B9B"/>
<stop offset="1" stop-color="#959595"/>
</linearGradient>
<linearGradient id="paint54_linear_28_545" x1="416.528" y1="446.492" x2="448.329" y2="445.857" gradientUnits="userSpaceOnUse">
<stop offset="0.1169" stop-color="#262626"/>
<stop offset="0.2329" stop-color="#2A2A2A"/>
<stop offset="0.3429" stop-color="#353535"/>
<stop offset="0.4507" stop-color="#484848"/>
<stop offset="0.5569" stop-color="#636363"/>
<stop offset="0.6622" stop-color="#868686"/>
<stop offset="0.7653" stop-color="#B0B0B0"/>
<stop offset="0.7854" stop-color="#B9B9B9"/>
<stop offset="0.8634" stop-color="#B6B6B6"/>
<stop offset="0.9269" stop-color="#ACACAC"/>
<stop offset="0.9849" stop-color="#9B9B9B"/>
<stop offset="1" stop-color="#959595"/>
</linearGradient>
<linearGradient id="paint55_linear_28_545" x1="183.641" y1="573.998" x2="210.892" y2="573.453" gradientUnits="userSpaceOnUse">
<stop offset="0.1169" stop-color="#262626"/>
<stop offset="0.2329" stop-color="#2A2A2A"/>
<stop offset="0.3429" stop-color="#353535"/>
<stop offset="0.4507" stop-color="#484848"/>
<stop offset="0.5569" stop-color="#636363"/>
<stop offset="0.6622" stop-color="#868686"/>
<stop offset="0.7653" stop-color="#B0B0B0"/>
<stop offset="0.7854" stop-color="#B9B9B9"/>
<stop offset="0.8634" stop-color="#B6B6B6"/>
<stop offset="0.9269" stop-color="#ACACAC"/>
<stop offset="0.9849" stop-color="#9B9B9B"/>
<stop offset="1" stop-color="#959595"/>
</linearGradient>
<linearGradient id="paint56_linear_28_545" x1="303.458" y1="588.554" x2="358.877" y2="587.447" gradientUnits="userSpaceOnUse">
<stop offset="0.1169" stop-color="#262626"/>
<stop offset="0.2329" stop-color="#2A2A2A"/>
<stop offset="0.3429" stop-color="#353535"/>
<stop offset="0.4507" stop-color="#484848"/>
<stop offset="0.5569" stop-color="#636363"/>
<stop offset="0.6622" stop-color="#868686"/>
<stop offset="0.7653" stop-color="#B0B0B0"/>
<stop offset="0.7854" stop-color="#B9B9B9"/>
<stop offset="0.8634" stop-color="#B6B6B6"/>
<stop offset="0.9269" stop-color="#ACACAC"/>
<stop offset="0.9849" stop-color="#9B9B9B"/>
<stop offset="1" stop-color="#959595"/>
</linearGradient>
<linearGradient id="paint57_linear_28_545" x1="262.173" y1="598.732" x2="284.431" y2="598.288" gradientUnits="userSpaceOnUse">
<stop offset="0.1169" stop-color="#262626"/>
<stop offset="0.2329" stop-color="#2A2A2A"/>
<stop offset="0.3429" stop-color="#353535"/>
<stop offset="0.4507" stop-color="#484848"/>
<stop offset="0.5569" stop-color="#636363"/>
<stop offset="0.6622" stop-color="#868686"/>
<stop offset="0.7653" stop-color="#B0B0B0"/>
<stop offset="0.7854" stop-color="#B9B9B9"/>
<stop offset="0.8634" stop-color="#B6B6B6"/>
<stop offset="0.9269" stop-color="#ACACAC"/>
<stop offset="0.9849" stop-color="#9B9B9B"/>
<stop offset="1" stop-color="#959595"/>
</linearGradient>
<linearGradient id="paint58_linear_28_545" x1="180.369" y1="325.06" x2="208.198" y2="324.504" gradientUnits="userSpaceOnUse">
<stop offset="0.1169" stop-color="#262626"/>
<stop offset="0.2329" stop-color="#2A2A2A"/>
<stop offset="0.3429" stop-color="#353535"/>
<stop offset="0.4507" stop-color="#484848"/>
<stop offset="0.5569" stop-color="#636363"/>
<stop offset="0.6622" stop-color="#868686"/>
<stop offset="0.7653" stop-color="#B0B0B0"/>
<stop offset="0.7854" stop-color="#B9B9B9"/>
<stop offset="0.8634" stop-color="#B6B6B6"/>
<stop offset="0.9269" stop-color="#ACACAC"/>
<stop offset="0.9849" stop-color="#9B9B9B"/>
<stop offset="1" stop-color="#959595"/>
</linearGradient>
<linearGradient id="paint59_linear_28_545" x1="381.467" y1="543.962" x2="419.821" y2="543.196" gradientUnits="userSpaceOnUse">
<stop offset="0.1169" stop-color="#262626"/>
<stop offset="0.2329" stop-color="#2A2A2A"/>
<stop offset="0.3429" stop-color="#353535"/>
<stop offset="0.4507" stop-color="#484848"/>
<stop offset="0.5569" stop-color="#636363"/>
<stop offset="0.6622" stop-color="#868686"/>
<stop offset="0.7653" stop-color="#B0B0B0"/>
<stop offset="0.7854" stop-color="#B9B9B9"/>
<stop offset="0.8634" stop-color="#B6B6B6"/>
<stop offset="0.9269" stop-color="#ACACAC"/>
<stop offset="0.9849" stop-color="#9B9B9B"/>
<stop offset="1" stop-color="#959595"/>
</linearGradient>
<linearGradient id="paint60_linear_28_545" x1="281.269" y1="334.426" x2="286.41" y2="591.762" gradientUnits="userSpaceOnUse">
<stop stop-color="#262626"/>
<stop offset="0.1549" stop-color="#3E3E3E"/>
<stop offset="0.3356" stop-color="#5F5F5F"/>
<stop offset="0.553" stop-color="#959595"/>
<stop offset="0.7854" stop-color="#B9B9B9"/>
<stop offset="0.8634" stop-color="#B6B6B6"/>
<stop offset="0.9269" stop-color="#ACACAC"/>
<stop offset="0.9849" stop-color="#9B9B9B"/>
<stop offset="1" stop-color="#959595"/>
</linearGradient>
<linearGradient id="paint61_linear_28_545" x1="280.94" y1="317.978" x2="286.825" y2="612.54" gradientUnits="userSpaceOnUse">
<stop stop-color="#262626"/>
<stop offset="0.1549" stop-color="#3E3E3E"/>
<stop offset="0.3356" stop-color="#5F5F5F"/>
<stop offset="0.553" stop-color="#959595"/>
<stop offset="0.7854" stop-color="#B9B9B9"/>
<stop offset="0.8634" stop-color="#B6B6B6"/>
<stop offset="0.9269" stop-color="#ACACAC"/>
<stop offset="0.9849" stop-color="#9B9B9B"/>
<stop offset="1" stop-color="#959595"/>
</linearGradient>
<linearGradient id="paint62_linear_28_545" x1="837.157" y1="45.6329" x2="841.53" y2="264.492" gradientUnits="userSpaceOnUse">
<stop stop-color="#262626"/>
<stop offset="0.1549" stop-color="#3E3E3E"/>
<stop offset="0.3356" stop-color="#5F5F5F"/>
<stop offset="0.553" stop-color="#959595"/>
<stop offset="0.7854" stop-color="#B9B9B9"/>
<stop offset="0.8634" stop-color="#B6B6B6"/>
<stop offset="0.9269" stop-color="#ACACAC"/>
<stop offset="0.9849" stop-color="#9B9B9B"/>
<stop offset="1" stop-color="#959595"/>
</linearGradient>
<linearGradient id="paint63_linear_28_545" x1="900.978" y1="215.425" x2="901.45" y2="239.005" gradientUnits="userSpaceOnUse">
<stop offset="0.1169" stop-color="#262626"/>
<stop offset="0.2329" stop-color="#2A2A2A"/>
<stop offset="0.3429" stop-color="#353535"/>
<stop offset="0.4507" stop-color="#484848"/>
<stop offset="0.5569" stop-color="#636363"/>
<stop offset="0.6622" stop-color="#868686"/>
<stop offset="0.7653" stop-color="#B0B0B0"/>
<stop offset="0.7854" stop-color="#B9B9B9"/>
<stop offset="0.8634" stop-color="#B6B6B6"/>
<stop offset="0.9269" stop-color="#ACACAC"/>
<stop offset="0.9849" stop-color="#9B9B9B"/>
<stop offset="1" stop-color="#959595"/>
</linearGradient>
<linearGradient id="paint64_linear_28_545" x1="933.497" y1="139.39" x2="933.784" y2="153.771" gradientUnits="userSpaceOnUse">
<stop offset="0.1169" stop-color="#262626"/>
<stop offset="0.2329" stop-color="#2A2A2A"/>
<stop offset="0.3429" stop-color="#353535"/>
<stop offset="0.4507" stop-color="#484848"/>
<stop offset="0.5569" stop-color="#636363"/>
<stop offset="0.6622" stop-color="#868686"/>
<stop offset="0.7653" stop-color="#B0B0B0"/>
<stop offset="0.7854" stop-color="#B9B9B9"/>
<stop offset="0.8634" stop-color="#B6B6B6"/>
<stop offset="0.9269" stop-color="#ACACAC"/>
<stop offset="0.9849" stop-color="#9B9B9B"/>
<stop offset="1" stop-color="#959595"/>
</linearGradient>
<linearGradient id="paint65_linear_28_545" x1="927.62" y1="165.598" x2="928.317" y2="200.469" gradientUnits="userSpaceOnUse">
<stop offset="0.1169" stop-color="#262626"/>
<stop offset="0.2329" stop-color="#2A2A2A"/>
<stop offset="0.3429" stop-color="#353535"/>
<stop offset="0.4507" stop-color="#484848"/>
<stop offset="0.5569" stop-color="#636363"/>
<stop offset="0.6622" stop-color="#868686"/>
<stop offset="0.7653" stop-color="#B0B0B0"/>
<stop offset="0.7854" stop-color="#B9B9B9"/>
<stop offset="0.8634" stop-color="#B6B6B6"/>
<stop offset="0.9269" stop-color="#ACACAC"/>
<stop offset="0.9849" stop-color="#9B9B9B"/>
<stop offset="1" stop-color="#959595"/>
</linearGradient>
<linearGradient id="paint66_linear_28_545" x1="840.375" y1="238.803" x2="840.775" y2="258.791" gradientUnits="userSpaceOnUse">
<stop offset="0.1169" stop-color="#262626"/>
<stop offset="0.2329" stop-color="#2A2A2A"/>
<stop offset="0.3429" stop-color="#353535"/>
<stop offset="0.4507" stop-color="#484848"/>
<stop offset="0.5569" stop-color="#636363"/>
<stop offset="0.6622" stop-color="#868686"/>
<stop offset="0.7653" stop-color="#B0B0B0"/>
<stop offset="0.7854" stop-color="#B9B9B9"/>
<stop offset="0.8634" stop-color="#B6B6B6"/>
<stop offset="0.9269" stop-color="#ACACAC"/>
<stop offset="0.9849" stop-color="#9B9B9B"/>
<stop offset="1" stop-color="#959595"/>
</linearGradient>
<linearGradient id="paint67_linear_28_545" x1="760.236" y1="92.4309" x2="760.578" y2="109.558" gradientUnits="userSpaceOnUse">
<stop offset="0.1169" stop-color="#262626"/>
<stop offset="0.2329" stop-color="#2A2A2A"/>
<stop offset="0.3429" stop-color="#353535"/>
<stop offset="0.4507" stop-color="#484848"/>
<stop offset="0.5569" stop-color="#636363"/>
<stop offset="0.6622" stop-color="#868686"/>
<stop offset="0.7653" stop-color="#B0B0B0"/>
<stop offset="0.7854" stop-color="#B9B9B9"/>
<stop offset="0.8634" stop-color="#B6B6B6"/>
<stop offset="0.9269" stop-color="#ACACAC"/>
<stop offset="0.9849" stop-color="#9B9B9B"/>
<stop offset="1" stop-color="#959595"/>
</linearGradient>
<linearGradient id="paint68_linear_28_545" x1="751.087" y1="167.738" x2="751.783" y2="202.569" gradientUnits="userSpaceOnUse">
<stop offset="0.1169" stop-color="#262626"/>
<stop offset="0.2329" stop-color="#2A2A2A"/>
<stop offset="0.3429" stop-color="#353535"/>
<stop offset="0.4507" stop-color="#484848"/>
<stop offset="0.5569" stop-color="#636363"/>
<stop offset="0.6622" stop-color="#868686"/>
<stop offset="0.7653" stop-color="#B0B0B0"/>
<stop offset="0.7854" stop-color="#B9B9B9"/>
<stop offset="0.8634" stop-color="#B6B6B6"/>
<stop offset="0.9269" stop-color="#ACACAC"/>
<stop offset="0.9849" stop-color="#9B9B9B"/>
<stop offset="1" stop-color="#959595"/>
</linearGradient>
<linearGradient id="paint69_linear_28_545" x1="744.691" y1="141.789" x2="744.97" y2="155.779" gradientUnits="userSpaceOnUse">
<stop offset="0.1169" stop-color="#262626"/>
<stop offset="0.2329" stop-color="#2A2A2A"/>
<stop offset="0.3429" stop-color="#353535"/>
<stop offset="0.4507" stop-color="#484848"/>
<stop offset="0.5569" stop-color="#636363"/>
<stop offset="0.6622" stop-color="#868686"/>
<stop offset="0.7653" stop-color="#B0B0B0"/>
<stop offset="0.7854" stop-color="#B9B9B9"/>
<stop offset="0.8634" stop-color="#B6B6B6"/>
<stop offset="0.9269" stop-color="#ACACAC"/>
<stop offset="0.9849" stop-color="#9B9B9B"/>
<stop offset="1" stop-color="#959595"/>
</linearGradient>
<linearGradient id="paint70_linear_28_545" x1="916.697" y1="90.3744" x2="917.046" y2="107.866" gradientUnits="userSpaceOnUse">
<stop offset="0.1169" stop-color="#262626"/>
<stop offset="0.2329" stop-color="#2A2A2A"/>
<stop offset="0.3429" stop-color="#353535"/>
<stop offset="0.4507" stop-color="#484848"/>
<stop offset="0.5569" stop-color="#636363"/>
<stop offset="0.6622" stop-color="#868686"/>
<stop offset="0.7653" stop-color="#B0B0B0"/>
<stop offset="0.7854" stop-color="#B9B9B9"/>
<stop offset="0.8634" stop-color="#B6B6B6"/>
<stop offset="0.9269" stop-color="#ACACAC"/>
<stop offset="0.9849" stop-color="#9B9B9B"/>
<stop offset="1" stop-color="#959595"/>
</linearGradient>
<linearGradient id="paint71_linear_28_545" x1="779.114" y1="216.768" x2="779.596" y2="240.874" gradientUnits="userSpaceOnUse">
<stop offset="0.1169" stop-color="#262626"/>
<stop offset="0.2329" stop-color="#2A2A2A"/>
<stop offset="0.3429" stop-color="#353535"/>
<stop offset="0.4507" stop-color="#484848"/>
<stop offset="0.5569" stop-color="#636363"/>
<stop offset="0.6622" stop-color="#868686"/>
<stop offset="0.7653" stop-color="#B0B0B0"/>
<stop offset="0.7854" stop-color="#B9B9B9"/>
<stop offset="0.8634" stop-color="#B6B6B6"/>
<stop offset="0.9269" stop-color="#ACACAC"/>
<stop offset="0.9849" stop-color="#9B9B9B"/>
<stop offset="1" stop-color="#959595"/>
</linearGradient>
<linearGradient id="paint72_linear_28_545" x1="910.81" y1="153.791" x2="749.071" y2="157.023" gradientUnits="userSpaceOnUse">
<stop stop-color="#262626"/>
<stop offset="0.1549" stop-color="#3E3E3E"/>
<stop offset="0.3356" stop-color="#5F5F5F"/>
<stop offset="0.553" stop-color="#959595"/>
<stop offset="0.7854" stop-color="#B9B9B9"/>
<stop offset="0.8634" stop-color="#B6B6B6"/>
<stop offset="0.9269" stop-color="#ACACAC"/>
<stop offset="0.9849" stop-color="#9B9B9B"/>
<stop offset="1" stop-color="#959595"/>
</linearGradient>
<linearGradient id="paint73_linear_28_545" x1="921.147" y1="153.585" x2="736.011" y2="157.283" gradientUnits="userSpaceOnUse">
<stop stop-color="#262626"/>
<stop offset="0.1549" stop-color="#3E3E3E"/>
<stop offset="0.3356" stop-color="#5F5F5F"/>
<stop offset="0.553" stop-color="#959595"/>
<stop offset="0.7854" stop-color="#B9B9B9"/>
<stop offset="0.8634" stop-color="#B6B6B6"/>
<stop offset="0.9269" stop-color="#ACACAC"/>
<stop offset="0.9849" stop-color="#9B9B9B"/>
<stop offset="1" stop-color="#959595"/>
</linearGradient>
</defs>
</svg>
