<svg width="64" height="64" viewBox="0 0 64 64" fill="none" xmlns="http://www.w3.org/2000/svg">
<rect width="64" height="64" rx="8" fill="#1F1F1F"/>
<path d="M25.8328 27.4846L27.5229 19.7753H22.9864C19.1083 19.7753 16.8638 22.2129 16.2264 23.4317C16.2264 23.4317 14.6401 26.1043 14.0026 28.4097C13.3652 30.7151 12.0725 36.1454 12.0013 39.4229C11.9301 42.7004 14.7884 43.6667 16.2264 43.7401H24.632L23.787 47H33.0821L37.8853 27.2643H40.0646C42.2349 27.0881 42.2734 29.7166 42.0214 31.0529C41.381 34.7181 39.4123 35.8693 38.508 35.9868L36.729 43.7401C42.3505 43.9515 44.5565 43.3289 44.9567 42.9912C47.981 40.8062 50.012 36.4126 50.6494 34.489C52.1438 30.2952 52.1023 25.0764 51.8947 22.9912C51.5745 20.5242 48.826 19.8194 47.4918 19.7753H39.8422L40.3314 17H31.0808L26.2776 36.3392C24.8099 36.6476 21.9546 36.3392 22.2748 32.6388C22.5951 28.9383 24.7803 27.6608 25.8328 27.4846Z" fill="#C70000"/>
</svg>
