<svg width="64" height="64" viewBox="0 0 64 64" fill="none" xmlns="http://www.w3.org/2000/svg">
<path d="M37.8819 32.2429C36.5392 34.201 34.1888 37.4376 32.4711 39.1354C31.7999 39.7986 31.4081 39.0144 30.9704 38.5018C27.6208 34.5781 21.5818 26.9358 21.0057 21.5405C20.3653 15.5434 25.4119 10.4653 31.2403 9.84216C33.5362 9.79795 35.5389 10.1534 37.5317 11.3504C40.6571 13.2278 43.2446 17.2245 43.0187 20.9686C42.8183 24.2896 40.4394 28.2075 38.7043 31.092C38.9558 31.5045 39.2847 31.8743 39.5898 32.2473L40.7418 33.6613C41.7444 33.9948 42.8131 34.1884 43.8384 34.4465C44.3483 34.5749 45.3446 34.636 45.3026 35.3548C45.2228 36.7181 44.5833 39.3871 44.2912 40.7855C44.7086 41.311 45.0906 41.8624 45.5083 42.3863C47.7719 39.782 48.2684 35.2959 47.2459 32.1081C46.5877 30.0558 44.9589 27.6071 43.0226 26.6075C43.2569 26.2284 43.3896 25.7819 43.5408 25.3643C44.5243 25.7468 45.8553 27.0856 46.5052 27.9343C49.9088 32.3788 50.0144 38.8384 46.5139 43.2566C45.7334 44.2416 44.7792 44.8824 43.8054 45.6484L36.9473 51.0626C34.9719 52.6416 32.7761 55.2429 30.1203 53.4665C29.6334 53.1409 29.1903 52.723 28.7308 52.3574L19.4886 45.1114C18.8151 44.5956 18.1089 44.1306 17.5982 43.4414C15.4609 40.5569 14.5179 37.295 15.0481 33.7269C15.5994 30.015 17.4196 27.5198 20.3264 25.3643C20.4989 25.7836 20.7052 26.1883 20.8786 26.6075C18.7631 28.4865 17.7726 29.2806 16.7811 32.2429L16.7688 32.3078L16.8113 32.3294C17.9612 31.9119 20.0342 30.4611 21.2522 29.827C21.9996 30.3526 23.0213 30.9979 23.6781 31.6255C24.2347 32.1575 25.5924 34.1541 26.0523 34.8503C25.3521 34.465 24.3822 33.6841 23.7181 33.2061C22.9036 32.62 22.0061 32.0651 21.2522 31.4049C19.6552 32.1674 17.9687 33.2825 16.3492 34.1288C15.8018 36.847 16.8144 39.9899 18.3792 42.1998C19.4611 41.0119 20.6578 39.9335 21.7419 38.7478C21.7634 37.089 21.6719 35.4135 21.7419 33.7576C22.1446 34.1641 22.5922 34.5393 23.0728 34.8503L23.0734 37.7668C23.0744 38.2508 23.1096 38.7441 23.0728 39.2263C22.6428 39.8636 19.7627 42.709 19.1897 43.203C19.6187 43.5976 20.1182 43.9296 20.5827 44.2824L24.8129 47.5633C25.2137 47.8833 25.6071 48.2343 26.0523 48.4908C26.3096 47.8555 26.7583 47.2581 27.1092 46.666L28.5034 44.3504C29.7428 42.2964 29.3259 42.8708 31.8117 42.4359L34.6233 41.9574C36.5236 41.6346 36.2237 41.3469 37.7377 42.4185L39.5941 43.7481C40.3721 44.3136 41.1894 44.8354 41.9396 45.437C42.8219 44.7509 43.7194 44.075 44.5794 43.3614C44.2454 42.9469 43.0739 41.4524 42.9252 41.0496C42.9869 40.5133 43.1204 39.9713 43.2151 39.4384L43.8676 35.828C42.8752 35.6214 41.3321 35.2418 40.3878 34.9421C39.6684 34.7138 38.4887 32.8809 37.8819 32.2429ZM31.3642 11.156C28.6588 11.4375 26.2193 12.6714 24.5016 14.799C22.1317 17.7344 21.7689 20.6675 23.0453 24.0541C24.8087 28.7329 28.6082 33.8165 31.9918 37.6194C32.0971 37.5086 32.2118 37.4 32.3063 37.2801C35.1996 33.9733 41.9746 25.0183 41.6786 20.2941C41.3484 15.0256 36.6178 10.8533 31.3642 11.156ZM36.2358 43.0426C34.2288 43.3396 32.2376 43.7528 30.2341 44.0748C29.1357 45.5154 28.0749 47.6983 27.0153 49.2933C28.0229 50.0156 30.7622 52.5839 31.7472 52.712C32.7008 52.753 33.1368 52.3869 33.8424 51.82L35.2662 50.6728C37.1146 49.2081 38.9588 47.7208 40.8432 46.303L37.7734 44.0985C37.5208 43.9176 36.4808 43.0324 36.2358 43.0426Z" fill="white"/>
<path d="M32.3062 24.969C25.6487 25.0306 25.7037 15.7997 31.8492 15.5156C38.2734 15.4816 38.3193 24.5723 32.3062 24.969ZM31.7471 16.8557C26.9561 17.4013 28.0851 24.1216 32.3062 23.6228C37.0301 23.0237 35.9309 16.4147 31.7471 16.8557Z" fill="white"/>
</svg>
