<svg width="52" height="52" viewBox="0 0 52 52" fill="none" xmlns="http://www.w3.org/2000/svg">
<circle cx="26" cy="19" r="11" fill="white"/>
<path d="M26 52C26 52 45.5 33.5205 45.5 19.5C45.5 14.3283 43.4455 9.36838 39.7886 5.71142C36.1316 2.05446 31.1717 0 26 0C20.8283 0 15.8684 2.05446 12.2114 5.71142C8.55446 9.36838 6.5 14.3283 6.5 19.5C6.5 33.5205 26 52 26 52ZM26 29.25C23.4141 29.25 20.9342 28.2228 19.1057 26.3943C17.2772 24.5658 16.25 22.0859 16.25 19.5C16.25 16.9141 17.2772 14.4342 19.1057 12.6057C20.9342 10.7772 23.4141 9.75 26 9.75C28.5859 9.75 31.0658 10.7772 32.8943 12.6057C34.7228 14.4342 35.75 16.9141 35.75 19.5C35.75 22.0859 34.7228 24.5658 32.8943 26.3943C31.0658 28.2228 28.5859 29.25 26 29.25Z" fill="#C70000"/>
</svg>
