<svg width="111" height="102" viewBox="0 0 111 102" fill="none" xmlns="http://www.w3.org/2000/svg">
<path d="M85.8109 42.1835H78.3225C77.8214 40.5826 77.1739 39.0464 76.4048 37.584L81.7087 32.2801C82.4705 31.5183 82.4705 30.2836 81.7087 29.5219L72.7458 20.559C71.9841 19.7973 70.7494 19.7973 69.9877 20.559L64.6838 25.8629C63.2214 25.0938 61.6851 24.4463 60.0842 23.9452V16.4568C60.0842 15.3796 59.2114 14.5068 58.1341 14.5068H45.4585C44.3812 14.5068 43.5084 15.3796 43.5084 16.4568V23.9452C41.9075 24.4463 40.3712 25.0938 38.9088 25.8629L33.6049 20.559C32.8432 19.7973 31.6085 19.7973 30.8474 20.559L21.8845 29.5219C21.1228 30.2836 21.1228 31.5183 21.8845 32.2801L27.1884 37.584C26.4193 39.0464 25.7718 40.5826 25.2707 42.1835H17.7823C16.7051 42.1835 15.8323 43.0563 15.8323 44.1336V56.8092C15.8323 57.8865 16.7057 58.7593 17.7823 58.7593H25.2707C25.7718 60.3602 26.4193 61.8965 27.1884 63.3589L21.8845 68.6628C21.1228 69.4245 21.1228 70.6592 21.8845 71.4209L30.8474 80.3839C31.6091 81.1456 32.8438 81.1456 33.6049 80.3839L38.9088 75.0799C40.3712 75.849 41.9075 76.4966 43.5084 76.9977V84.486C43.5084 85.5632 44.3818 86.436 45.4585 86.436H58.1341C59.2114 86.436 60.0842 85.5632 60.0842 84.486V76.9977C61.6851 76.4966 63.2214 75.849 64.6838 75.0799L69.9877 80.3839C70.7494 81.1456 71.9841 81.1456 72.7458 80.3839L81.7087 71.4209C82.4705 70.6592 82.4705 69.4245 81.7087 68.6628L76.4048 63.3589C77.1739 61.8965 77.8214 60.3602 78.3225 58.7593H85.8109C86.8875 58.7593 87.7609 57.8865 87.7609 56.8092V44.1336C87.7609 43.0569 86.8881 42.1835 85.8109 42.1835ZM51.7963 69.4855C41.3118 69.4855 32.7828 60.9559 32.7828 50.472C32.7828 39.9875 41.3124 31.4585 51.7963 31.4585C62.2808 31.4585 70.8098 39.9881 70.8098 50.472C70.8104 60.9559 62.2808 69.4855 51.7963 69.4855Z" fill="#636363"/>
<path d="M58.1341 86.0706V86.436H45.4584V86.0706H58.1341ZM59.7188 84.4858V76.7289L59.9751 76.649C61.5539 76.1548 63.0698 75.5159 64.5137 74.7566L64.7517 74.6313L70.2461 80.1254C70.8651 80.7443 71.8683 80.7443 72.4872 80.1254L81.4502 71.1624C82.0692 70.5434 82.0692 69.5403 81.4502 68.9213L75.9562 63.4269L76.0814 63.1888C76.8407 61.745 77.4796 60.229 77.9738 58.6502L78.0541 58.3936H85.8107V58.7591H78.3225C77.8214 60.36 77.1738 61.8963 76.4048 63.3587L81.7086 68.6629C82.4703 69.4246 82.4703 70.6591 81.7086 71.4208L72.7457 80.3838C72.0078 81.1216 70.8262 81.1447 70.0606 80.453L69.9877 80.3838L64.6839 75.0799C63.2215 75.849 61.6852 76.4966 60.0843 76.9977V84.4858L60.0818 84.5861C60.0296 85.6168 59.1777 86.436 58.1341 86.436V86.0706C59.0095 86.0706 59.7188 85.3612 59.7188 84.4858ZM43.5086 84.4858V76.9977C41.9077 76.4966 40.3713 75.8489 38.9089 75.0799L33.6051 80.3838L33.5323 80.453C32.7919 81.1225 31.6613 81.1224 30.9204 80.453L30.8475 80.3838L21.8846 71.4208C21.1466 70.6829 21.1235 69.501 21.8153 68.7353L21.8846 68.6629L27.1884 63.3587C26.4194 61.8963 25.7718 60.36 25.2707 58.7591H17.7825V58.3936H25.5391L25.6194 58.6502C26.1136 60.229 26.7525 61.745 27.5118 63.1888L27.637 63.4269L22.143 68.9213C21.524 69.5403 21.524 70.5434 22.143 71.1624L31.106 80.1254C31.725 80.7443 32.7281 80.7441 33.3463 80.1254L38.8408 74.6313L39.0788 74.7566C40.5227 75.5159 42.0386 76.1548 43.6174 76.649L43.874 76.7289V84.4858C43.874 85.3611 44.5836 86.0705 45.4584 86.0706V86.436L45.3581 86.4335C44.3613 86.383 43.5616 85.5835 43.5111 84.5861L43.5086 84.4858ZM70.8097 50.4721C70.8097 40.0702 62.4137 31.592 52.0418 31.4601L51.7962 31.4587C41.3124 31.4587 32.7828 39.9876 32.7828 50.4721L32.7845 50.7173C32.9153 61.007 41.2608 69.3531 51.551 69.4838L51.7962 69.4856C62.1989 69.4856 70.6771 61.0886 70.8083 50.7173L70.8097 50.4721ZM87.3954 56.8092V44.1336C87.3954 43.2587 86.6861 42.5489 85.8107 42.5489H78.0541L77.9738 42.2926C77.4796 40.7138 76.8407 39.1979 76.0814 37.754L75.9562 37.516L81.4502 32.0215C82.0692 31.4026 82.0692 30.3994 81.4502 29.7804L72.4872 20.8175C71.8683 20.1985 70.8651 20.1985 70.2461 20.8175L64.7517 26.3115L64.5137 26.1863C63.0698 25.427 61.5539 24.7881 59.9751 24.2939L59.7188 24.2136V16.457C59.7188 15.5816 59.0095 14.8723 58.1341 14.8723H45.4584C44.583 14.8723 43.874 15.5816 43.874 16.457V24.2136L43.6174 24.2939C42.0386 24.7881 40.5227 25.427 39.0788 26.1863L38.8408 26.3115L33.3463 20.8175C32.7273 20.1985 31.7242 20.1987 31.106 20.8175L22.143 29.7804C21.524 30.3994 21.524 31.4026 22.143 32.0215L27.637 37.516L27.5118 37.754C26.7525 39.1979 26.1136 40.7138 25.6194 42.2926L25.5391 42.5489H17.7825C16.9071 42.5489 16.1978 43.2582 16.1978 44.1336V56.8092C16.1978 57.6845 16.9076 58.3936 17.7825 58.3936V58.7591L17.6822 58.7566C16.6853 58.7061 15.8853 57.9069 15.8348 56.9095L15.8323 56.8092V44.1336C15.8323 43.09 16.6513 42.2382 17.6818 42.1859L17.7825 42.1834H25.2707L25.3663 41.8839C25.8532 40.3907 26.4674 38.9547 27.1884 37.5838L21.8846 32.2799C21.1466 31.542 21.1234 30.3601 21.8153 29.5945L21.8846 29.522L30.8475 20.5591C31.6086 19.7974 32.8434 19.7974 33.6051 20.5591L38.9089 25.8629C40.3713 25.0939 41.9076 24.4463 43.5086 23.9452V16.457C43.5086 15.3798 44.3812 14.5068 45.4584 14.5068H58.1341C59.2113 14.5068 60.0843 15.3797 60.0843 16.457V23.9452C61.5851 24.4149 63.0291 25.0135 64.4087 25.7201L64.6839 25.8629L69.9877 20.5591C70.7494 19.7974 71.9839 19.7974 72.7457 20.5591L81.7086 29.522C82.4703 30.2837 82.4703 31.5182 81.7086 32.2799L76.4048 37.5838C77.1738 39.0461 77.8214 40.5825 78.3225 42.1834H85.8107C86.888 42.1834 87.7609 43.0569 87.7609 44.1336V56.8092L87.7584 56.9095C87.7062 57.9401 86.8537 58.7591 85.8107 58.7591V58.3936C86.6856 58.3936 87.3954 57.6845 87.3954 56.8092ZM71.1752 50.4721C71.1757 61.1578 62.4826 69.8511 51.7962 69.8511C41.1099 69.851 32.4174 61.1578 32.4173 50.4721C32.4173 39.7858 41.1105 31.0932 51.7962 31.0932C62.4826 31.0932 71.1752 39.7864 71.1752 50.4721Z" fill="#1F1F1F"/>
<path d="M51.7966 29.9955C40.5058 29.9955 31.3201 39.1813 31.3201 50.472C31.3201 61.7622 40.5058 70.9479 51.7966 70.9479C63.0874 70.9479 72.2731 61.7622 72.2731 50.472C72.2731 39.1813 63.0874 29.9955 51.7966 29.9955ZM51.7966 69.4855C41.312 69.4855 32.7831 60.9559 32.7831 50.472C32.7831 39.9875 41.3127 31.4585 51.7966 31.4585C62.2811 31.4585 70.8101 39.9881 70.8101 50.472C70.8107 60.9559 62.2811 69.4855 51.7966 69.4855Z" fill="white"/>
<path d="M71.9076 50.472C71.9076 39.3831 62.8855 30.361 51.7966 30.361C40.7076 30.361 31.6856 39.3831 31.6856 50.472C31.6856 61.5604 40.7076 70.5823 51.7966 70.5823V70.9478C40.5939 70.9478 31.4638 61.9051 31.3219 50.7362L31.3201 50.472C31.3201 39.1813 40.5058 29.9956 51.7966 29.9955C63.0873 29.9955 72.273 39.1813 72.273 50.472L72.2713 50.7362C72.1293 61.9051 62.9992 70.9478 51.7966 70.9478V70.5823C62.8855 70.5823 71.9076 61.5604 71.9076 50.472ZM70.81 50.472C70.81 40.07 62.4137 31.5917 52.0418 31.46L51.7966 31.4586C41.3127 31.4586 32.7831 39.9875 32.7831 50.472L32.7845 50.7172C32.9163 61.0886 41.3939 69.4855 51.7966 69.4855C62.1992 69.4855 70.6774 61.0886 70.8086 50.7172L70.81 50.472ZM71.1755 50.472C71.1761 61.1578 62.4829 69.851 51.7966 69.851C41.1102 69.851 32.4176 61.1578 32.4176 50.472C32.4176 39.7857 41.1108 31.0931 51.7966 31.0931C62.4829 31.0931 71.1755 39.7863 71.1755 50.472Z" fill="#1F1F1F"/>
<path d="M58.6223 84.9737H44.9713V75.9235L43.9459 75.6018C42.4677 75.1392 41.0022 74.5282 39.5899 73.7854L38.6365 73.2843L32.2261 79.6948L22.5734 70.0422L28.9839 63.6317L28.4828 62.6784C27.74 61.2666 27.1291 59.8006 26.6658 58.3223L26.3448 57.2969H17.2952V43.6459H26.346L26.667 42.6206C27.1297 41.1423 27.7412 39.6769 28.484 38.2645L28.9851 37.3112L22.5747 30.9007L32.2273 21.2481L38.6378 27.6585L39.5911 27.1574C41.0034 26.4147 42.4689 25.8037 43.9471 25.3411L44.9725 25.0194V15.9692H58.6235V25.0194L59.6489 25.3411C61.1272 25.8037 62.5926 26.4147 64.0049 27.1574L64.9583 27.6585L71.3688 21.2481L81.0214 30.9007L74.6109 37.3112L75.112 38.2645C75.8548 39.6763 76.4658 41.1417 76.929 42.6199L77.2501 43.6453H86.3009V57.2963H77.2501L76.929 58.3217C76.4664 59.8 75.8548 61.2654 75.112 62.6771L74.6109 63.6305L81.0214 70.041L71.3688 79.6936L64.9583 73.2831L64.0049 73.7842C62.5926 74.5264 61.1272 75.138 59.6489 75.6006L58.6235 75.9222V84.9737H58.6223ZM45.9466 83.9983H57.6476V75.2069L59.3565 74.6717C60.7786 74.2261 62.1898 73.6377 63.5496 72.9224L65.139 72.0868L71.3675 78.3154L79.6414 70.0416L73.4122 63.8136L74.2478 62.2249C74.9631 60.865 75.5515 59.4539 75.997 58.0318L76.5323 56.3228H85.3237V44.6219H76.5323L75.997 42.9129C75.5515 41.4902 74.9631 40.0797 74.2478 38.7198L73.4122 37.1311L79.6408 30.9025L71.3669 22.6287L65.1383 28.8573L63.549 28.0217C62.1892 27.3064 60.778 26.718 59.3559 26.2724L57.647 25.7372V16.9458H45.946V25.7372L44.2371 26.2724C42.8149 26.718 41.4038 27.3064 40.044 28.0217L38.4546 28.8573L32.2261 22.6287L23.9522 30.9025L30.1808 37.1311L29.3452 38.7198C28.6299 40.0803 28.0415 41.4908 27.596 42.9135L27.0607 44.6225H18.2693V56.3234H27.0607L27.596 58.0324C28.0415 59.4545 28.6299 60.8656 29.3452 62.2261L30.1808 63.8148L23.9522 70.0434L32.2261 78.3172L38.4546 72.0887L40.044 72.9242C41.4038 73.6396 42.8149 74.2279 44.2371 74.6735L45.946 75.2088L45.9466 83.9983ZM51.8212 71.9214C46.1358 71.9214 40.6879 69.6851 36.6358 65.633C32.126 61.1238 29.8658 54.8842 30.4329 48.5153C31.3539 38.1901 39.516 30.0285 49.8406 29.1081C56.2108 28.5417 62.4492 30.8012 66.9584 35.3104C71.4683 39.8197 73.7284 46.0593 73.1614 52.4282C72.2403 62.7534 64.0782 70.9156 53.7536 71.836C53.1078 71.8934 52.4627 71.9214 51.8212 71.9214ZM51.7718 29.9968C51.1596 29.9968 50.5438 30.0236 49.9273 30.0792C40.0733 30.9575 32.2828 38.7473 31.4039 48.602C30.8619 54.6822 33.0195 60.6392 37.3249 64.944C41.6291 69.2481 47.586 71.4087 53.6663 70.8649C63.5209 69.9866 71.3108 62.1968 72.1897 52.3421C72.7317 46.2619 70.5741 40.3055 66.2687 36.0007C62.401 32.1318 57.199 29.9968 51.7718 29.9968Z" fill="white"/>
<path d="M58.2581 75.6537L59.5395 75.2518C60.996 74.796 62.4415 74.1931 63.835 73.4608L65.0264 72.8344L71.3685 79.1765L80.5042 70.0408L74.1621 63.6987L74.7885 62.5073C75.5214 61.1144 76.1244 59.669 76.5803 58.2125L76.9814 56.9308H85.9355V44.011H76.9814L76.5803 42.7293C76.1238 41.2726 75.5213 39.8275 74.7885 38.4348L74.1621 37.2431L80.5046 30.9006L71.3689 21.7649L65.0264 28.1073L63.835 27.4809C62.4417 26.7482 60.9964 26.1458 59.5398 25.6899L58.2581 25.2877V16.3347H45.338V25.2877L44.0567 25.6899C42.6911 26.1173 41.3353 26.6733 40.0231 27.345L39.7611 27.4809L38.5697 28.1073L32.2273 21.7649L23.0912 30.9006L29.434 37.2431L28.8076 38.4345C28.0748 39.8279 27.4717 41.2732 27.0159 42.7296L26.6946 43.7551L26.6147 44.0113H17.6607V56.9315H26.6133L27.0144 58.2132C27.471 59.6699 28.0734 61.1157 28.8062 62.5083L29.4326 63.6997L23.0901 70.0422L32.2258 79.1779L38.5683 72.8355L39.7601 73.4618C41.0664 74.1489 42.4181 74.7213 43.7822 75.1658L44.0552 75.2529L45.3369 75.6551V84.6081H58.2581V75.6537ZM57.6474 83.9985V75.2068L59.3564 74.6718C60.6896 74.2541 62.0132 73.7106 63.2939 73.055L63.5495 72.9225L65.1388 72.087L71.3674 78.3152L79.6416 70.0415L73.4122 63.8136L74.2478 62.2249C74.9184 60.9501 75.4774 59.6302 75.9117 58.2985L75.9971 58.0318L76.5324 56.3229H85.3237V44.622H76.5324L75.9971 42.9131C75.5794 41.5793 75.0362 40.2561 74.3806 38.9755L74.2478 38.72L73.4122 37.131L79.6408 30.9024L71.3671 22.6286L65.1385 28.8572L63.5491 28.0217C62.2742 27.351 60.9541 26.7921 59.6223 26.3577L59.356 26.2724L57.6471 25.737V16.9457H45.9462V25.737L44.2369 26.2724C42.8148 26.718 41.4036 27.3064 40.0438 28.0217L38.4548 28.8572L32.2262 22.6286L23.9521 30.9024L30.1807 37.131L29.3451 38.72L29.2127 38.9755C28.557 40.2567 28.0136 41.5797 27.5959 42.9134L27.0608 44.6224H18.2692V56.3233H27.0608L27.5959 58.0326C28.0414 59.4546 28.6299 60.8656 29.3451 62.226L30.1807 63.8147L23.9521 70.0433L32.2262 78.3174L38.4548 72.0888L40.0438 72.9243C41.4036 73.6396 42.8148 74.228 44.2369 74.6736L45.9462 75.2086L45.9465 83.9985H57.6474ZM49.8405 29.1081C56.2107 28.5417 62.4492 30.8011 66.9584 35.3103C71.4683 39.8196 73.7283 46.0592 73.1613 52.4282C72.2403 62.7534 64.0781 70.9157 53.7535 71.8361C53.1077 71.8934 52.4625 71.9214 51.8211 71.9214V71.5559C52.3914 71.5559 52.9647 71.532 53.5386 71.4859L53.5282 71.3664L53.7103 71.3503L53.8923 71.3339L53.9026 71.4535C63.965 70.4698 71.8974 62.4841 72.7973 52.3957C73.3547 46.1342 71.133 40.0012 66.7 35.5687C62.3368 31.2056 56.3269 28.9851 50.1664 29.4479L49.873 29.4722C39.7247 30.3769 31.702 38.3988 30.7967 48.5478C30.2393 54.8093 32.4613 60.9424 36.8943 65.3748C40.8775 69.3579 46.2323 71.5559 51.8211 71.5559V71.9214C46.2246 71.9214 40.8583 69.7544 36.8269 65.8216L36.6359 65.6332C32.1965 61.1944 29.9371 55.0788 30.4084 48.8137L30.433 48.5153C31.3397 38.3514 39.2628 30.2842 49.3583 29.1567L49.8405 29.1081ZM51.7718 29.6314C57.2954 29.6314 62.5906 31.8043 66.5273 35.7422C70.9094 40.1238 73.1054 46.187 72.5538 52.3747C71.6732 62.2487 63.9757 70.0865 54.1675 71.1818L53.6988 71.229C47.5109 71.7824 41.4473 69.5832 37.0664 65.2024C32.6842 60.8208 30.4882 54.7572 31.0398 48.5695C31.9344 38.5388 39.8644 30.6094 49.8944 29.7153L50.3649 29.6781C50.8352 29.6466 51.3046 29.6314 51.7718 29.6314ZM51.7718 29.9969C51.1597 29.9969 50.5437 30.0238 49.9273 30.0793L49.4668 30.1254C39.8315 31.2014 32.269 38.9014 31.4038 48.602L31.3806 48.8868C30.93 54.8679 33.0867 60.7064 37.3248 64.944C41.5617 69.1809 47.4004 71.3408 53.3815 70.8885L53.6664 70.8649C63.367 70.0003 71.0668 62.4385 72.1434 52.8026L72.1898 52.3422C72.7233 46.3569 70.641 40.4916 66.4691 36.2037L66.2688 36.0006C62.4615 32.1921 57.3612 30.0639 52.026 29.9983L51.7718 29.9969ZM58.6236 84.9736H44.9714V75.9235L43.946 75.6019C42.5601 75.1682 41.1855 74.6039 39.8554 73.923L39.5898 73.7856L38.6365 73.2845L32.2262 79.6947L22.5733 70.0422L28.9839 63.6316L28.4828 62.6782C27.7865 61.3548 27.2058 59.9836 26.7543 58.5993L26.6657 58.3224L26.3449 57.297H17.2952V43.6458H26.3459L26.6672 42.6204C27.1009 41.2347 27.6653 39.8601 28.3461 38.5301L28.4839 38.2646L28.985 37.3112L22.5747 30.9006L32.2273 21.248L38.6379 27.6587L39.5912 27.1576C40.9153 26.4612 42.2859 25.8804 43.6701 25.4294L43.9471 25.3412L44.9725 25.0193V15.9692H58.6236V25.0193L59.6491 25.3412C61.1273 25.8038 62.5926 26.4148 64.0049 27.1576L64.9582 27.6587L71.3689 21.248L81.0214 30.9006L74.6108 37.3112L75.1119 38.2646C75.8547 39.6763 76.4657 41.1418 76.929 42.6201L77.2502 43.6455H86.301V57.2962H77.2502L76.929 58.3217C76.4663 59.7999 75.8547 61.2654 75.1119 62.6772L74.6108 63.6305L81.0214 70.0411L71.3689 79.6937L64.9582 73.283L64.0049 73.7841C62.5926 74.5263 61.1273 75.1379 59.6491 75.6005L58.6236 75.9221V84.9736ZM58.0126 25.4683L59.4652 25.9237C60.9089 26.376 62.3403 26.973 63.719 27.6983L65.07 28.4086L71.3671 22.1118L80.1577 30.9024L73.8605 37.1992L74.5712 38.5497C75.2964 39.9284 75.8934 41.3592 76.3458 42.8035L76.8008 44.2565H85.6892V56.6884H76.8008L76.3458 58.1411C75.8934 59.5848 75.2965 61.0164 74.5712 62.3952L73.8609 63.7454L80.1584 70.0415L71.3674 78.8324L65.0707 72.5356L63.7197 73.2459C62.341 73.9712 60.9096 74.5682 59.466 75.0205L58.0129 75.4752V84.364H45.5811L45.5807 75.4774L44.1277 75.0223C42.7743 74.5983 41.4316 74.0471 40.133 73.3823L39.8739 73.2477L38.5226 72.5374L32.2262 78.8342L23.4353 70.0433L29.7317 63.7465L29.0218 62.3963C28.2965 61.0169 27.6995 59.5855 27.2472 58.1418L26.7921 56.6888H17.9037V44.2569H26.7921L27.2472 42.8042C27.6995 41.3599 28.2965 39.9291 29.0218 38.5497L29.732 37.1992L23.4353 30.9024L32.2262 22.1118L38.5226 28.4082L39.8739 27.6983C41.2527 26.973 42.684 26.376 44.1277 25.9237L45.5807 25.4683V16.5803H58.0126V25.4683Z" fill="#1F1F1F"/>
<path d="M14.5435 65.1667C8.59754 69.7615 7.5019 78.306 12.0967 84.252C16.6914 90.1979 25.2359 91.2936 31.1819 86.6988C35.4055 83.4357 37.1804 78.1785 36.2087 73.2766L78.2337 40.8041C83.4521 43.7096 90.1164 43.4189 95.1422 39.536C99.7203 35.9982 101.756 30.3912 100.952 25.0495L88.5379 34.6424L80.5444 31.3629L79.3877 22.8001L91.8024 13.2071C86.8364 11.0812 80.8968 11.6364 76.3196 15.1742C71.2948 19.0569 69.3325 25.4338 70.8272 31.216L28.8022 63.6886C24.3018 61.5116 18.7671 61.9036 14.5435 65.1667ZM21.7056 67.3705L29.6991 70.6501L30.8559 79.2128L24.0191 84.496L16.0255 81.2165L14.8689 72.6546L21.7056 67.3705Z" fill="#636363"/>
<path d="M75.4433 13.545C80.5323 9.75016 87.0579 9.1881 92.5215 11.527L95.381 12.7513L81.3396 23.601L82.214 30.0724L88.2554 32.5511L102.296 21.7015L102.759 24.7775C103.657 30.7477 101.383 37.0225 96.2594 40.9819C90.9797 45.061 84.0863 45.5943 78.4352 42.9574L38.1823 74.0606C38.8046 79.1905 36.8341 84.5119 32.5217 87.9695L32.2992 88.1447C25.5546 93.3567 15.8626 92.1139 10.6507 85.3694C5.43876 78.6248 6.68143 68.9324 13.426 63.7206C17.8928 60.2695 23.6501 59.6521 28.5408 61.5807L68.794 30.4774C67.6686 24.3444 69.9232 17.8073 75.2021 13.7282L75.4433 13.545ZM91.8021 13.207C86.8361 11.0812 80.8967 11.6366 76.3195 15.1743L76.0863 15.3578C71.2342 19.2558 69.356 25.524 70.8272 31.2158L28.8023 63.6886L28.5905 63.5884C24.1291 61.5245 18.701 61.9545 14.5434 65.1667C8.59747 69.7614 7.50171 78.306 12.0964 84.252C16.6912 90.198 25.2357 91.2934 31.1817 86.6986C35.4052 83.4356 37.1801 78.1786 36.2085 73.2768L78.2335 40.804C83.3703 43.6641 89.9084 43.4272 94.9052 39.7154L95.142 39.5361C99.7201 35.9983 101.756 30.3912 100.952 25.0495L88.5377 34.6426L80.5444 31.3627L79.3877 22.8002L91.8021 13.207ZM29.699 70.65L30.8558 79.2129L24.0189 84.496L16.0256 81.2164L14.869 72.6546L21.7054 67.3705L29.699 70.65ZM16.8209 73.4554L17.6952 79.9261L23.7362 82.4045L28.9035 78.4118L28.029 71.9401L21.988 69.4616L16.8209 73.4554Z" fill="#1F1F1F"/>
<path opacity="0.1" d="M28.8003 63.6886L70.8252 31.216C69.3306 25.4339 71.293 19.0578 76.3177 15.1742C80.8959 11.6372 86.8346 11.0822 91.8004 13.2072L90.8766 13.9205C86.3797 12.6961 81.3824 13.5184 77.4105 16.5876C72.3857 20.4703 70.4234 26.8473 71.918 32.6294L29.8931 65.102C25.3945 62.9247 19.8598 63.3167 15.6362 66.5799C9.92838 70.9909 8.69126 79.0419 12.6665 84.9394C12.4709 84.7169 12.28 84.488 12.0964 84.2508C7.50168 78.3048 8.59732 69.7603 14.5433 65.1656C18.767 61.9034 24.3017 61.5113 28.8003 63.6886Z" fill="white"/>
<path opacity="0.1" d="M76.3178 15.1743C80.8961 11.6373 86.8346 11.0823 91.8004 13.2073L90.8767 13.9204L90.6655 13.8648C86.2238 12.7225 81.3202 13.5664 77.4104 16.5877L77.1772 16.7716C72.3253 20.6696 70.4468 26.9378 71.9181 32.6296L29.8931 65.102L29.6816 65.0017C25.222 62.9376 19.794 63.3677 15.6364 66.5797L15.3721 66.7894C9.89112 71.2421 8.75355 79.1342 12.6667 84.9395C12.4711 84.717 12.2799 84.4879 12.0963 84.2506C7.57344 78.3975 8.5645 70.0264 14.2682 65.3836L14.5434 65.1657C18.7011 61.9544 24.1291 61.5242 28.5887 63.5884L28.8002 63.6886L70.8252 31.2162C69.3539 25.5244 71.2327 19.257 76.0846 15.3581L76.3178 15.1743ZM91.072 13.3077C86.4242 11.5455 81.0115 12.1286 76.7518 15.3038L76.5413 15.4634C71.6363 19.2545 69.7198 25.4789 71.1792 31.1246L71.2395 31.3577L28.8448 64.1162L28.6411 64.0174C24.3308 61.9314 19.0446 62.2692 14.9603 65.3079L14.7668 65.4548C10.2784 68.9233 8.631 74.7042 10.2045 79.8239C9.31424 74.8617 11.1476 69.5867 15.4126 66.2906L15.617 66.1358C19.8628 62.9758 25.3387 62.584 29.8469 64.6757L71.5057 32.4856C70.0883 26.63 72.1105 20.2212 77.187 16.2985C81.2015 13.1964 86.2394 12.3365 90.7959 13.5207L91.072 13.3077Z" fill="#1F1F1F"/>
<path d="M101.092 26.3957L88.6287 36.0259L79.405 32.242L78.0703 22.3624L90.5331 12.7323C90.9618 12.8724 91.3844 13.0301 91.8005 13.2083L79.3858 22.8013L80.5425 31.364L88.5361 34.6436L100.95 25.0507C101.018 25.4972 101.063 25.9467 101.092 26.3957Z" fill="white"/>
<path d="M90.533 12.7323C90.9617 12.8724 91.3845 13.0302 91.8005 13.2083L79.3857 22.8012L80.5425 31.3641L88.5361 34.6436L100.95 25.0509C101.018 25.4973 101.063 25.9467 101.092 26.3956L88.6288 36.0259L79.4049 32.2419L78.0703 22.3625L90.533 12.7323ZM78.4604 22.5224L79.7388 31.9837L88.5721 35.6075L100.712 26.2263C100.7 26.0606 100.686 25.895 100.668 25.7299L88.5924 35.0617L80.2086 31.622L78.9952 22.6413L91.0719 13.3094C90.916 13.2506 90.7589 13.195 90.601 13.1412L78.4604 22.5224Z" fill="#1F1F1F"/>
<path d="M35.3447 65.2877L36.3125 66.5399C36.9512 67.3656 38.138 67.518 38.9638 66.8802L74.3216 39.5591C75.1475 38.9213 75.2997 37.7336 74.661 36.9079L73.6932 35.6557C73.0545 34.83 71.8677 34.6776 71.0418 35.3154L35.684 62.6365C34.8591 63.2742 34.7069 64.4619 35.3447 65.2877Z" fill="#363636"/>
<path d="M71.0419 35.3155C71.8677 34.6777 73.0544 34.8301 73.6931 35.6558L74.6611 36.908C75.2997 37.7337 75.1473 38.9213 74.3216 39.5591L38.9639 66.8803L38.8855 66.9376C38.091 67.4895 37.0041 67.35 36.3739 66.6154L36.3124 66.5401L35.3447 65.2878C34.7069 64.462 34.859 63.2741 35.6839 62.6364L71.0419 35.3155ZM73.404 35.8792C72.9047 35.2339 71.9907 35.0987 71.3286 35.5583L71.2653 35.6046L35.9077 62.9259L35.9073 62.9256C35.2422 63.4398 35.1194 64.3982 35.6339 65.0644L36.6015 66.3163C37.1008 66.9618 38.0151 67.0973 38.6772 66.6375L38.7405 66.5908L74.0981 39.2699L74.1589 39.2204C74.7711 38.696 74.8711 37.7766 74.372 37.1314L74.3716 37.1314L73.404 35.8792Z" fill="#1F1F1F"/>
<path d="M74.1776 36.2812C74.2498 36.375 74.314 36.4717 74.3719 36.5702C73.4322 35.6329 71.9203 35.5156 70.8411 36.3484L36.7354 62.7017C35.6572 63.5354 35.3891 65.0274 36.0587 66.1741C35.977 66.0928 35.9002 66.0062 35.8282 65.9134C34.9223 64.7414 35.1387 63.0579 36.3106 62.152L70.4163 35.7988C71.5882 34.8929 73.2718 35.1093 74.1776 36.2812Z" fill="white"/>
<path d="M70.4163 35.7988C71.5883 34.893 73.2718 35.1092 74.1776 36.2811C74.2498 36.3749 74.314 36.4718 74.3719 36.5702C73.4322 35.6329 71.9202 35.5155 70.841 36.3484L36.7355 62.7015C35.6573 63.5352 35.3891 65.0274 36.0586 66.1742C35.9769 66.0929 35.9002 66.0061 35.8282 65.9133C34.9224 64.7414 35.1386 63.0578 36.3105 62.152L70.4163 35.7988Z" fill="#1F1F1F"/>
<path d="M30.575 69.9729L21.5573 66.2733L13.844 72.2337L15.1494 81.8935L24.1672 85.5932L31.8805 79.6337L30.575 69.9729ZM21.705 67.3706L29.6985 70.6501L30.8553 79.2128L24.0185 84.496L16.025 81.2165L14.8684 72.6547L21.705 67.3706Z" fill="white"/>
<path d="M30.5751 69.9729L31.8805 79.6336L24.1672 85.5932L15.1494 81.8936L13.844 72.2336L21.5573 66.2733L30.5751 69.9729ZM14.2342 72.3935L15.4832 81.6351L24.1105 85.1748L31.49 79.4734L30.2409 70.2311L21.6136 66.6914L14.2342 72.3935ZM30.0327 70.3922L30.0607 70.6013L31.2457 79.3732L24.0749 84.9145L15.8861 81.5545L15.6911 81.4747L14.4778 72.4945L21.6485 66.9525L30.0327 70.3922ZM14.8683 72.6547L16.0249 81.2165L24.0186 84.496L30.8552 79.213L29.6984 70.6501L21.7051 67.3705L14.8683 72.6547Z" fill="#1F1F1F"/>
<g opacity="0.5">
<path d="M86.0328 41.553C86.1308 41.6796 86.2874 41.7565 86.4592 41.7456C92.1544 41.3629 95.4777 38.5779 97.262 36.3092C99.1944 33.8519 99.7722 31.5061 99.7963 31.4078C99.8603 31.1412 99.6959 30.8734 99.4293 30.8094C99.1626 30.7454 98.8949 30.9098 98.8308 31.1755C98.8253 31.1977 98.2672 33.4394 96.4558 35.7285C94.0417 38.7775 90.656 40.4686 86.3928 40.7548C86.1194 40.7728 85.9127 41.0101 85.9306 41.2834C85.9368 41.3851 85.9743 41.4779 86.0328 41.553Z" fill="white"/>
<path d="M98.831 31.1755C98.8952 30.9098 99.1629 30.7455 99.4295 30.8095C99.6961 30.8735 99.8605 31.1413 99.7965 31.4078L99.7599 31.546C99.6067 32.0946 98.9528 34.1591 97.2621 36.309C95.5057 38.5424 92.2581 41.276 86.7247 41.726L86.4594 41.7457C86.2876 41.7565 86.1309 41.6798 86.0329 41.5532C85.9744 41.4781 85.937 41.3851 85.9309 41.2834C85.913 41.0101 86.1195 40.773 86.3928 40.7549C90.5227 40.4777 93.8295 38.8819 96.2268 36.0104L96.456 35.7284C98.2673 33.4392 98.8256 31.1976 98.831 31.1755ZM99.3442 31.1648C99.2738 31.1479 99.2029 31.1914 99.186 31.2612L99.1858 31.2623C99.1741 31.3102 98.5997 33.6086 96.7427 35.9554L96.7424 35.9555C94.2576 39.0938 90.7721 40.8273 86.4174 41.1197L86.4167 41.1198C86.3462 41.1245 86.2906 41.1863 86.2953 41.2595L86.298 41.2793C86.3018 41.297 86.3096 41.3136 86.3211 41.3284L86.322 41.3294C86.3483 41.3635 86.389 41.3833 86.4344 41.381L86.4347 41.3809C92.0057 41.0065 95.2402 38.2887 96.9748 36.0832C98.8505 33.698 99.4164 31.4217 99.4408 31.3222C99.4575 31.2523 99.4147 31.1818 99.3442 31.1648Z" fill="#1F1F1F"/>
</g>
<path d="M2.78491 37.8306H107.679V64.8766H2.78491V37.8306Z" fill="#1F1F1F"/>
<path d="M107.679 64.8766V65.9731H2.78491V64.8766H107.679ZM107.679 36.7342V37.8307H2.78491V36.7342H107.679Z" fill="white"/>
<path d="M95.0219 56.7867H91.2542L94.348 44.0468H98.2641L97.0968 48.6595H101.521L102.557 44.0468H106.51L103.329 56.7867H99.4878L100.717 51.6311H96.332L95.0219 56.7867Z" fill="white"/>
<path d="M62.9984 56.8175H59.0205L61.8653 45.8049C62.3413 44.1314 64.3708 43.9353 65.5754 44.0649C65.1856 44.0097 64.9607 43.9751 65.9878 44.1091C67.28 44.2777 67.6352 45.5478 67.6513 46.1618L68.3745 52.9322C69.3754 51.2922 71.5608 47.6422 72.2957 46.1618C73.0306 44.6813 73.8869 44.2389 74.9479 44.1091C76.0089 43.9793 76.9332 44.1091 76.9332 44.1091C78.3727 44.3427 78.5539 45.3369 78.4646 45.8049L75.7481 56.8175H71.8275L73.865 48.737L70.3666 54.7446C69.696 56.2795 68.6668 56.8016 68.2308 56.8175H67.1785C67.0419 56.8175 66.9179 56.813 66.8051 56.8047C65.6407 56.7182 65.4849 55.2506 65.381 54.0876L64.9029 48.737L62.9984 56.8175Z" fill="white"/>
<path d="M51.3436 56.8065H47.4766L50.0766 45.9556C50.5009 44.5669 51.7159 44.0912 52.2704 44.0269H61.4798L60.7083 47.2815H53.7892L51.3436 56.8065Z" fill="white"/>
<path d="M9.73725 48.4869L10.4527 45.1921H8.53227C6.89051 45.1921 5.94037 46.2339 5.67052 46.7548C5.67052 46.7548 4.99898 47.897 4.72913 48.8823C4.45927 49.8676 3.91202 52.1884 3.8819 53.5891C3.85178 54.9899 5.06176 55.4029 5.67052 55.4342H9.2289L8.87118 56.8275H12.8061L14.8395 48.3928H15.762C16.6808 48.3175 16.6971 49.4408 16.5904 50.0119C16.3193 51.5784 15.4859 52.0704 15.1031 52.1206L14.35 55.4342C16.7298 55.5246 17.6636 55.2585 17.833 55.1142C19.1133 54.1803 19.9731 52.3026 20.243 51.4805C20.8756 49.6881 20.858 47.4577 20.7701 46.5665C20.6346 45.5122 19.471 45.2109 18.9062 45.1921H15.6679L15.875 44.006H11.9589L9.92553 52.2712C9.30422 52.403 8.09548 52.2712 8.23103 50.6897C8.36659 49.1082 9.29166 48.5622 9.73725 48.4869Z" fill="#C70000"/>
<path d="M22.2832 56.8333H18.1721C20.1529 53.9213 24.1405 47.5603 25.1938 45.9622C26.5258 43.9413 27.9956 43.9721 28.8338 44.0102C30.2459 44.0001 30.8883 45.3708 31.0969 46.7675L32.6002 56.8333H28.4892L27.6196 48.0974L22.2832 56.8333Z" fill="white"/>
<path d="M39.5092 45.962C40.8412 43.9413 42.3109 43.9719 43.1491 44.01C44.5612 44 45.2037 45.3709 45.4123 46.7676L46.9157 56.833H42.8047L42.5466 54.2418H38.1815L36.5986 56.833H32.4875C34.4684 53.921 38.456 47.56 39.5092 45.962ZM39.9639 51.3236H42.2561L41.9349 48.0974L39.9639 51.3236Z" fill="white"/>
<path d="M83.3877 45.962C84.7196 43.9411 86.1897 43.9719 87.0279 44.01C88.4399 44.0001 89.0822 45.371 89.2907 46.7676L90.7941 56.8331H86.6831L86.425 54.2418H82.0599L80.477 56.8331H76.366C78.3468 53.921 82.3344 47.5601 83.3877 45.962ZM83.8427 51.3236H86.1349L85.8136 48.0974L83.8427 51.3236Z" fill="white"/>
</svg>
