<svg width="32" height="32" viewBox="0 0 32 32" fill="none" xmlns="http://www.w3.org/2000/svg">
<path d="M27.2202 5.65332C27.9802 5.65332 28.5536 6.31999 28.2469 7.55999L24.5269 25.0933C24.2669 26.34 23.5136 26.64 22.4736 26.06L13.6002 19.5067C13.5658 19.482 13.5378 19.4494 13.5184 19.4118C13.4991 19.3741 13.489 19.3323 13.489 19.29C13.489 19.2476 13.4991 19.2059 13.5184 19.1682C13.5378 19.1305 13.5658 19.098 13.6002 19.0733L23.8469 9.81999C24.3136 9.40665 23.7469 9.20665 23.1336 9.57999L10.2736 17.6933C10.2346 17.7188 10.1903 17.735 10.1441 17.7408C10.0979 17.7465 10.051 17.7417 10.0069 17.7267L4.54689 16C3.33356 15.6467 3.33356 14.8133 4.82022 14.22L26.6669 5.79332C26.8404 5.71087 27.0284 5.6633 27.2202 5.65332Z" stroke="#C70000" stroke-width="1.04167" stroke-linecap="round" stroke-linejoin="round"/>
</svg>
