<svg width="32" height="32" viewBox="0 0 32 32" fill="none" xmlns="http://www.w3.org/2000/svg">
<path d="M10.072 13.5293C11.998 17.0844 14.9163 20.0027 18.4713 21.9287L20.4427 19.9573C20.8586 19.5389 21.38 19.2409 21.9516 19.095C22.5233 18.9491 23.1238 18.9607 23.6893 19.1287C24.6432 19.4147 25.6216 19.6111 26.612 19.7153C27.5993 19.82 28.334 20.6787 28.334 22.1773V26.284C28.334 27.4687 27.3113 28.3773 26.1313 28.2733C14.2453 27.2227 4.77733 17.7553 3.72733 5.86932C3.62333 4.68999 4.53533 3.66666 5.71999 3.66666H10.3253C11.318 3.66666 12.18 4.40132 12.2847 5.38866C12.3891 6.37903 12.5857 7.3575 12.872 8.31132C13.0398 8.87694 13.052 9.47746 12.906 10.0491C12.76 10.6207 12.4619 11.1422 12.0433 11.558L10.072 13.5293ZM10.072 13.5293L7.17532 16.4253M15.5747 24.8247L18.4707 21.9287" stroke="#C70000" stroke-width="1.04167" stroke-linecap="round" stroke-linejoin="round"/>
</svg>
