<svg width="41" height="54" viewBox="0 0 41 54" fill="none" xmlns="http://www.w3.org/2000/svg">
<path d="M0 54L1.5974 43.8184L19.9295 27.1508C21.603 25.6425 22.9722 24.3101 24.0371 23.1536C25.1528 21.9972 25.9641 20.8659 26.4712 19.7598C27.0291 18.6536 27.308 17.4972 27.308 16.2905C27.308 14.6816 26.7248 13.4749 25.5584 12.6704C24.4428 11.8156 22.9215 11.3883 20.9944 11.3883C19.0674 11.3883 17.0643 11.7905 14.9852 12.595C12.906 13.3492 10.7761 14.4804 8.59555 15.9888L4.64007 5.73184C6.51639 4.47486 8.49412 3.41899 10.5733 2.56424C12.7032 1.70949 14.8837 1.081 17.115 0.678771C19.397 0.226257 21.7297 0 24.1132 0C27.4601 0 30.4014 0.603352 32.9369 1.81006C35.5232 3.01676 37.5009 4.67598 38.8701 6.78771C40.29 8.84916 41 11.2374 41 13.9525C41 16.919 40.4929 19.5587 39.4787 21.8715C38.4644 24.1844 37.0192 26.3464 35.1429 28.3575C33.3173 30.3687 31.1874 32.405 28.7532 34.4665L15.1373 46.2318L15.0612 42.7626H38.8701L37.0445 54H0Z" fill="#C70000"/>
</svg>
