<svg width="42" height="54" viewBox="0 0 42 54" fill="none" xmlns="http://www.w3.org/2000/svg">
<path d="M19.3718 54C17.1043 54 14.7383 53.7772 12.2737 53.3315C9.8584 52.9353 7.59097 52.2916 5.47141 51.4003C3.35186 50.5089 1.52805 49.37 0 47.9835L5.10172 38.4016C7.22128 39.9862 9.46406 41.1252 11.8301 41.8184C14.1961 42.4622 16.71 42.784 19.3718 42.784C20.8012 42.784 22.0582 42.5612 23.1426 42.1155C24.227 41.6699 25.0896 41.0261 25.7304 40.1843C26.4205 39.293 26.7656 38.2036 26.7656 36.9161C26.7656 35.4305 26.248 34.2916 25.2129 33.4993C24.1777 32.6575 22.6004 32.2366 20.4808 32.2366H11.6083L13.3088 21.392H21.2941C22.8222 21.392 24.1531 21.1939 25.2868 20.7978C26.4698 20.3521 27.3817 19.7084 28.0225 18.8666C28.7126 18.0248 29.0576 17.0096 29.0576 15.8212C29.0576 14.2861 28.4661 13.1472 27.2831 12.4044C26.1494 11.6121 24.646 11.216 22.7729 11.216C20.5548 11.216 18.2873 11.5873 15.9706 12.3301C13.6539 13.0729 11.4357 14.2118 9.31619 15.7469L5.39747 5.64511C8.15783 3.81293 11.2386 2.42641 14.6397 1.48556C18.0902 0.495185 21.4667 0 24.7692 0C28.7619 0 32.0152 0.668501 34.529 2.0055C37.0429 3.29298 38.8914 4.97661 40.0744 7.05639C41.3067 9.08665 41.9475 11.2655 41.9968 13.5928C42.0461 15.8707 41.5285 17.9257 40.4441 19.7579C39.409 21.5901 37.9548 23.1004 36.0817 24.2889C34.2579 25.4773 32.1384 26.2944 29.7231 26.74V25.7001C31.8919 26.1458 33.7157 26.9381 35.1945 28.077C36.6732 29.216 37.7823 30.6272 38.5217 32.3109C39.3104 33.945 39.7047 35.8019 39.7047 37.8817C39.7047 40.6547 38.916 43.2792 37.3387 45.7552C35.8106 48.1816 33.5432 50.1623 30.5364 51.6974C27.5296 53.2325 23.808 54 19.3718 54Z" fill="#C70000"/>
</svg>
