<svg width="24" height="24" viewBox="0 0 24 24" fill="none" xmlns="http://www.w3.org/2000/svg">
<g clip-path="url(#clip0_44_9916)">
<path d="M6.67792 9.81498C8.39932 12.9924 11.0076 15.6007 14.185 17.3221L15.9469 15.5601C16.3187 15.1862 16.7847 14.9198 17.2956 14.7894C17.8065 14.659 18.3432 14.6694 18.8487 14.8195C19.7012 15.0752 20.5758 15.2507 21.4609 15.3438C22.3434 15.4374 23 16.2048 23 17.5443V21.2147C23 22.2736 22.086 23.0857 21.0313 22.9927C10.4079 22.0537 1.94569 13.5921 1.00723 2.96868C0.914275 1.91463 1.7294 1 2.78822 1H6.90434C7.79156 1 8.56199 1.65662 8.65554 2.53908C8.74885 3.42425 8.92459 4.29877 9.18048 5.15127C9.33049 5.65681 9.34139 6.19353 9.21088 6.70445C9.08037 7.21536 8.81393 7.68139 8.43984 8.05305L6.67792 9.81498ZM6.67792 9.81498L4.08896 12.4033M11.5961 19.9104L14.1844 17.3221" stroke="#1F1F1F" stroke-width="1.04167" stroke-linecap="round" stroke-linejoin="round"/>
</g>
<defs>
<clipPath id="clip0_44_9916">
<rect width="24" height="24" fill="white"/>
</clipPath>
</defs>
</svg>
