<svg width="64" height="64" viewBox="0 0 64 64" fill="none" xmlns="http://www.w3.org/2000/svg">
<path d="M32.1642 9.93982C39.1536 9.94001 44.8262 15.5724 44.8931 22.5461C46.3286 22.9661 47.3774 24.292 47.3774 25.8633V28.1929L47.3728 28.3719C47.2911 29.9794 46.1179 31.2979 44.5798 31.6031C44.3857 32.4199 43.6358 33.2762 42.2501 33.8844C41.5922 34.1731 40.7747 34.4129 39.7696 34.5789C38.9321 35.6068 37.9465 36.4689 36.8517 37.1179V38.6922C36.8516 38.8405 36.8435 38.9871 36.8306 39.132L39.5337 40.0375L44.9415 41.8476C48.7737 43.1309 51.3571 46.7204 51.3571 50.7617V51.8609C51.3569 53.0757 50.372 54.0609 49.1571 54.0609H33.154C32.8229 54.0608 32.5542 53.792 32.554 53.4609C32.554 53.1296 32.8227 52.861 33.154 52.8609H49.1571C49.7092 52.8609 50.1569 52.413 50.1571 51.8609V50.7617C50.1571 47.2364 47.9039 44.1054 44.561 42.9859L39.5853 41.3195L35.6946 47.0711C35.5962 47.2163 35.4393 47.3116 35.2649 47.3312C35.1122 47.3483 34.9592 47.3061 34.8376 47.2148L34.7876 47.1726L32.0063 44.5656L28.7876 47.1992L28.4071 46.7344V46.7351L28.7876 47.1992C28.6556 47.3071 28.4834 47.3543 28.3149 47.3281C28.1676 47.3051 28.0346 47.2278 27.9415 47.1133L27.904 47.0617L24.1821 41.325L19.3923 42.9609C16.0734 44.0946 13.8431 47.2139 13.8431 50.7211V51.8609C13.8433 52.413 14.2909 52.8609 14.8431 52.8609H26.8259C27.1571 52.8611 27.4259 53.1297 27.4259 53.4609C27.4257 53.792 27.1569 54.0607 26.8259 54.0609H14.8431C13.6282 54.0609 12.6433 53.0757 12.6431 51.8609V50.7211C12.6431 46.7007 15.2002 43.1254 19.0048 41.8258L24.2368 40.0383L24.2415 40.0367L27.0978 39.0883C27.0872 38.9576 27.0806 38.8255 27.0806 38.6922V37.0781C24.7835 35.6926 22.9713 33.3676 22.0204 30.539C21.6769 31.2086 20.9809 31.6678 20.1767 31.6679L19.9985 31.6633C18.2319 31.5737 16.8156 30.1572 16.7259 28.3906L16.7212 28.2133V25.8617C16.7214 24.401 17.6282 23.1522 18.9095 22.6469C19.0968 15.6354 24.8376 9.93991 31.9001 9.93982H32.1642ZM25.3563 40.9304L28.5454 45.8453L31.3657 43.5383C29.4861 43.3079 27.9376 42.0116 27.3431 40.2711L25.3563 40.9304ZM36.5751 40.3117C35.9799 42.0047 34.4794 43.2698 32.654 43.5273L35.0946 45.8156L38.4032 40.9234L36.5751 40.3117ZM32.0329 43.7679H32.0337L31.8751 43.5742H31.8743L32.0329 43.7679ZM28.2806 38.6922C28.2809 40.7272 29.9307 42.3771 31.9657 42.3773C34.0009 42.3773 35.6513 40.7273 35.6517 38.6922V37.7242C34.5117 38.2058 33.282 38.4695 31.9993 38.4695C30.6917 38.4695 29.439 38.1956 28.2806 37.6961V38.6922ZM27.4048 21.9133C26.9663 23.0965 25.9523 23.8934 24.9118 24.407C24.1226 24.7965 23.2678 25.0494 22.5126 25.2015C22.4974 25.4623 22.4868 25.7258 22.4868 25.9914C22.487 32.3983 26.911 37.2695 31.9993 37.2695C34.2125 37.2695 36.2992 36.3467 37.9517 34.7781C37.0363 34.8333 36.0061 34.836 34.8485 34.7734C34.5915 35.6692 33.7684 36.3257 32.7899 36.3258C31.6061 36.3258 30.6464 35.3658 30.6462 34.182C30.6462 32.998 31.606 32.0383 32.7899 32.0383C33.7618 32.0383 34.581 32.6852 34.8438 33.5719C36.5768 33.6691 37.9834 33.6132 39.1181 33.4633C40.5942 31.4986 41.5117 28.9048 41.5118 25.9914C41.5118 25.7203 41.5027 25.4512 41.4868 25.1851C35.3986 26.0881 30.0235 23.6881 27.4048 21.9133ZM32.7899 33.2383C32.2687 33.2383 31.8462 33.6608 31.8462 34.182C31.8464 34.7031 32.2688 35.1258 32.7899 35.1258C33.311 35.1257 33.7335 34.703 33.7337 34.182C33.7337 33.6608 33.3111 33.2383 32.7899 33.2383ZM42.0142 30.4265C41.6992 31.3909 41.2842 32.2976 40.7845 33.1304C41.1578 33.0253 41.4846 32.9103 41.7681 32.7859C42.6947 32.3792 43.1238 31.9206 43.3079 31.5828C42.7246 31.4074 42.2517 30.98 42.0142 30.4265ZM43.9212 23.607C43.4388 23.607 43.0479 23.998 43.0478 24.4804V29.6195C43.0481 30.0896 43.4291 30.471 43.8993 30.4711C45.1573 30.471 46.1773 29.4509 46.1774 28.1929V25.8633C46.1774 24.6172 45.1672 23.6071 43.9212 23.607ZM20.1767 23.607C18.9313 23.607 17.9214 24.6164 17.9212 25.8617V28.2133C17.9216 29.4584 18.9315 30.4679 20.1767 30.4679C20.6584 30.4677 21.0489 30.077 21.0493 29.5953V24.4804C21.0493 23.9984 20.6586 23.6073 20.1767 23.607ZM31.9993 14.7133C27.4678 14.7133 23.4745 18.5635 22.6454 23.9429C23.2135 23.8055 23.8209 23.6067 24.3806 23.3304C25.4449 22.8051 26.2191 22.0699 26.3931 21.0867L26.4165 20.9898C26.5557 20.5521 27.081 20.2859 27.5259 20.5336L27.6196 20.5953L27.8517 20.764C30.2048 22.4359 35.4474 24.8835 41.361 23.989C40.5454 18.5815 36.5441 14.7133 31.9993 14.7133ZM31.9001 11.1398C25.5887 11.1399 20.4291 16.1616 20.1204 22.4078C20.1391 22.4075 20.1579 22.407 20.1767 22.407L20.3884 22.4179C20.8568 22.4656 21.2782 22.6697 21.6017 22.9765C22.7593 17.5416 26.9754 13.5133 31.9993 13.5133C37.0488 13.5133 41.2797 17.5831 42.4118 23.0601C42.7405 22.711 43.1881 22.4759 43.6907 22.4203C43.5575 16.1676 38.4487 11.14 32.1642 11.1398H31.9001Z" fill="white"/>
</svg>
