<svg width="26" height="23" viewBox="0 0 26 23" fill="none" xmlns="http://www.w3.org/2000/svg">
<g clip-path="url(#clip0_44_10252)">
<path d="M23.9189 1C24.6585 1 25.2164 1.67662 24.918 2.93514L21.298 20.7303C21.045 21.9956 20.3119 22.3001 19.2998 21.7114L10.6649 15.0602C10.6314 15.0351 10.6041 15.0021 10.5853 14.9639C10.5665 14.9256 10.5567 14.8833 10.5567 14.8403C10.5567 14.7973 10.5665 14.7549 10.5853 14.7167C10.6041 14.6785 10.6314 14.6455 10.6649 14.6204L20.6362 5.22889C21.0904 4.80938 20.5389 4.60639 19.9421 4.9853L7.42762 13.2198C7.38967 13.2456 7.34657 13.2621 7.30161 13.2679C7.25665 13.2738 7.211 13.2689 7.16812 13.2536L1.85483 11.5012C0.674097 11.1426 0.674097 10.2968 2.12082 9.69459L23.3805 1.14209C23.5493 1.05841 23.7322 1.01013 23.9189 1Z" stroke="#1F1F1F" stroke-width="1.04167" stroke-linecap="round" stroke-linejoin="round"/>
</g>
<defs>
<clipPath id="clip0_44_10252">
<rect width="26" height="23" fill="white"/>
</clipPath>
</defs>
</svg>
