<svg width="64" height="64" viewBox="0 0 64 64" fill="none" xmlns="http://www.w3.org/2000/svg">
<path d="M33.164 53.2944C27.2835 53.3055 22.8812 52.1298 18.2002 48.2518C9.28693 40.8678 8.09029 27.3061 15.4715 18.4239C19.6505 13.395 24.5779 11.1677 30.889 10.589C42.1098 10.2284 51.956 18.114 53.2275 29.495C54.3908 39.9079 47.7605 49.9028 37.5902 52.5718C36.0093 52.9866 34.771 53.1171 33.164 53.2944ZM31.8427 11.8746C20.8122 11.919 11.8623 21.1294 11.9133 32.11C11.964 43.0123 21.3222 52.4111 32.3082 51.9726C39.7877 51.9543 46.8298 47.3859 50.0359 40.6766C55.9663 28.2668 48.1545 13.9183 34.702 12.0532C33.772 11.9243 32.7838 11.797 31.8427 11.8746Z" fill="white"/>
<path d="M44.3718 43.4313C44.7386 42.9975 45.1411 42.596 45.4936 42.1497C45.8236 41.7318 46.5288 40.3475 47.013 40.2625C47.6086 40.1579 47.841 40.7874 47.6477 41.2733C47.4513 41.7672 46.453 42.9775 46.08 43.432C35.9466 55.7803 15.4558 49.9593 13.9007 33.5402C13.0953 25.0373 18.649 16.8852 26.8867 14.5328C28.2733 14.1369 29.6582 13.9409 31.0898 13.8097C31.866 13.7878 36.4927 13.6973 36.5318 14.8272C36.5666 15.8312 35.1543 15.3585 34.6178 15.2818C33.962 15.1879 33.3135 15.1444 32.6511 15.1504C32.6538 15.6229 32.752 16.7398 32.4363 17.0814C32.213 17.3233 31.7556 17.3023 31.5326 17.0717C31.2267 16.7554 31.3557 15.5912 31.358 15.1504L31.2647 15.1514C27.6681 15.2019 23.1 16.9918 20.5487 19.6267C20.9181 19.9672 21.8017 20.6487 21.8888 21.1172C21.9497 21.445 21.6822 21.8002 21.3523 21.8398C20.7496 21.912 20.1138 20.9502 19.6777 20.5922L19.6378 20.5598C17.105 22.5069 15.0947 28.1427 15.1858 31.2904C15.6968 31.2872 17.1056 31.1634 17.4903 31.5072C17.7366 31.7272 17.7591 32.1735 17.5225 32.409C17.1717 32.758 15.7205 32.6023 15.1858 32.6003C15.0258 36.4622 17.1757 40.6099 19.6378 43.4313C19.9512 42.9005 21.7698 40.8933 21.9965 42.4429C22.0793 43.01 20.917 43.8055 20.5786 44.2609L20.5487 44.3014C22.7798 46.9875 28.0158 48.6184 31.358 48.7734C31.3587 48.2598 31.2198 46.9494 31.5583 46.5819C31.7921 46.3282 32.2401 46.3574 32.4727 46.5967C32.778 46.9108 32.6727 48.2769 32.6511 48.7734C35.4118 48.6905 38.2445 47.8567 40.6096 46.4332C41.6142 45.8244 42.6046 45.1319 43.4396 44.3014C43.1042 43.9518 42.1922 43.273 42.2111 42.752C42.2691 41.1528 44.0478 43.034 44.3718 43.4313Z" fill="white"/>
<path d="M43.4397 19.6266C42.7656 18.8499 41.2047 17.8053 40.291 17.2989C39.7822 17.017 38.2246 16.548 38.7641 15.7116C38.8853 15.5236 39.032 15.4625 39.2423 15.4109C39.605 15.4228 40.0252 15.673 40.3447 15.8386C46.5701 19.0659 50.2251 25.3736 50.1643 32.4019C50.1597 32.9306 49.6484 39.5008 48.1586 37.7073C47.8949 37.3899 48.6021 34.9756 48.6788 34.3043C48.759 33.7365 48.801 33.173 48.8248 32.6003C48.0131 32.6058 46.6406 32.9153 46.3336 31.9141C46.5681 30.8889 47.9443 31.2916 48.8248 31.2904C48.7762 27.3809 47.094 23.3618 44.372 20.5598C44.0441 20.8523 43.3088 21.8113 42.9262 21.8636C42.5607 21.9135 42.1972 21.6779 42.17 21.2958C42.1307 20.7449 43.0749 20.0268 43.4397 19.6266Z" fill="white"/>
<path d="M31.358 29.598L31.3595 24.14C31.3597 23.3031 31.0271 21.1795 31.7827 20.7874C32.8362 20.7099 32.6512 21.6585 32.6516 22.3859L32.6511 29.598C34.4526 30.0649 35.1026 31.7549 34.2679 33.3739C34.6774 33.8094 35.1239 34.2169 35.5489 34.6375L38.0712 37.1456C38.5194 37.592 39.1334 38.1157 39.5002 38.6165C39.805 39.0325 39.4902 39.6267 38.9666 39.6184C38.5531 39.6117 35.5939 36.4451 35.18 36.0134C34.6122 35.427 34.0202 34.854 33.4167 34.3042C32.5052 34.8471 31.589 34.8242 30.6497 34.3042C30.0156 34.8525 29.4275 35.4797 28.8434 36.0809C28.408 36.5289 27.7194 37.5569 27.0534 36.8636C26.4747 36.2614 27.5682 35.512 27.9421 35.1406C28.54 34.5466 29.1334 33.9411 29.7567 33.3739C29.1844 31.823 29.5422 30.0296 31.358 29.598ZM31.7827 30.7847C30.0636 31.2177 30.5365 33.7069 32.3081 33.3739C33.8477 32.9966 33.652 30.6842 31.7827 30.7847Z" fill="white"/>
</svg>
